<svg width="196" height="125" viewBox="0 0 196 125" fill="none" xmlns="http://www.w3.org/2000/svg">
<path d="M74.5319 27L98.0319 50.1839C104.865 44.0172 119.232 30.7471 122.032 27C125.532 22.3161 124.532 15.1839 124.532 12.6839C124.532 10.1839 118.532 1.1839 110.532 1.1839C104.132 1.1839 99.5319 3.85057 98.0319 5.1839C96.3653 3.85057 91.732 1.1839 86.532 1.1839C80.032 1.1839 74.0319 6.6839 71.5319 12.6839C69.5319 17.4839 72.6986 24.228 74.5319 27Z" fill="#FF8484"/>
<path d="M87.3132 0.0475782C88.4179 0.0694532 89.3914 0.156953 90.1023 0.310078C90.7039 0.430391 91.6664 0.681953 92.2351 0.867891C92.8039 1.05383 93.7664 1.45852 94.3679 1.75383C94.9695 2.06008 95.757 2.50852 96.1179 2.74914C96.4789 2.98977 97.0585 3.40539 98.032 4.1382L99.1585 3.30695C99.771 2.85852 100.843 2.19133 101.532 1.84133C102.221 1.49133 103.26 1.05383 103.829 0.867891C104.398 0.681953 105.207 0.452266 105.634 0.364766C106.06 0.277266 106.869 0.156953 107.438 0.0803906C108.04 0.00382816 109.057 -0.0180469 109.844 0.0147656C110.599 0.0475781 111.748 0.189766 112.415 0.310078C113.082 0.441328 114.11 0.725703 114.712 0.933516C115.313 1.14133 116.221 1.52414 116.735 1.78664C117.249 2.0382 118.135 2.5632 118.704 2.94601C119.382 3.39445 120.202 4.08351 121.055 4.94758C121.81 5.70226 122.652 6.69758 123.035 7.25539C123.407 7.80226 123.932 8.67726 124.205 9.22414C124.479 9.77101 124.873 10.7226 125.091 11.357C125.31 11.9913 125.605 13.0413 125.737 13.7085C125.934 14.7038 125.977 15.2616 125.966 16.9351C125.955 18.5866 125.912 19.1663 125.715 20.1069C125.584 20.7413 125.321 21.7038 125.135 22.2398C124.96 22.7757 124.588 23.6726 124.326 24.2085C124.063 24.7444 123.56 25.6413 123.199 26.1773C122.849 26.7132 122.062 27.6976 121.46 28.3648C120.859 29.0319 115.477 34.446 109.505 40.4179C101.346 48.5663 98.557 51.2898 98.3054 51.3444C98.1304 51.3773 97.857 51.3773 97.7039 51.3335C97.5507 51.2898 95.3195 49.1569 92.4757 46.3241C89.7414 43.6007 87.4445 41.2491 87.357 41.0741C87.2695 40.9101 87.2039 40.6257 87.2039 40.4507C87.2039 40.2319 87.3132 40.0132 87.521 39.7944C87.7835 39.5319 87.9367 39.4663 88.7898 39.4663L98.032 48.7085L109.035 37.7163C115.084 31.6679 120.344 26.3304 120.716 25.8491C121.099 25.3679 121.635 24.5804 121.909 24.0991C122.182 23.6179 122.565 22.8523 122.74 22.4038C122.915 21.9554 123.188 21.1132 123.341 20.5444C123.494 19.9757 123.68 19.0132 123.746 18.4116C123.823 17.8101 123.844 16.8038 123.812 16.1695C123.779 15.5351 123.648 14.5288 123.527 13.9273C123.407 13.3257 123.177 12.4616 123.013 12.0132C122.86 11.5648 122.466 10.6788 122.138 10.0445C121.81 9.41008 121.318 8.6007 121.055 8.23976C120.782 7.87883 120.257 7.23351 119.874 6.81789C119.491 6.39133 118.693 5.68039 118.091 5.23195C117.501 4.77258 116.516 4.14914 115.915 3.84289C115.313 3.53664 114.449 3.15383 114.001 3.0007C113.552 2.83664 112.688 2.59602 112.087 2.4757C111.223 2.28977 110.61 2.23508 109.188 2.23508C107.734 2.23508 107.165 2.28977 106.235 2.48664C105.601 2.61789 104.616 2.90227 104.048 3.12102C103.479 3.32883 102.669 3.68976 102.243 3.91945C101.816 4.14914 101.138 4.58664 100.712 4.88195C100.285 5.1882 99.6179 5.72414 99.2132 6.09601C98.5679 6.6757 98.4148 6.7632 98.032 6.7632C97.6492 6.7632 97.507 6.6757 96.8617 6.09601C96.446 5.72414 95.7789 5.17726 95.3523 4.88195C94.9367 4.58664 94.2476 4.14914 93.821 3.91945C93.4054 3.68976 92.5851 3.32883 92.0164 3.12102C91.4476 2.90227 90.4632 2.61789 89.8289 2.48664C88.8992 2.28977 88.3304 2.23508 86.8757 2.23508C85.4539 2.23508 84.8414 2.28977 83.9773 2.4757C83.3757 2.59602 82.5117 2.83664 82.0632 3.0007C81.6148 3.15383 80.8492 3.49289 80.3679 3.73351C79.8867 3.97414 79.1757 4.37883 78.782 4.63039C78.3882 4.88195 77.6882 5.41789 77.2289 5.82258C76.7585 6.21633 76.1023 6.87258 75.7632 7.27726C75.4242 7.69289 74.9648 8.29445 74.7351 8.62258C74.5054 8.9507 74.1007 9.66164 73.8273 10.2085C73.5648 10.7445 73.2148 11.532 73.0617 11.9585C72.9085 12.3741 72.6789 13.2163 72.5585 13.8179C72.4273 14.4195 72.2851 15.4476 72.2523 16.1148C72.2195 16.782 72.2414 17.7991 72.3179 18.4116C72.3835 19.0132 72.5695 19.9757 72.7226 20.5444C72.8757 21.1132 73.1492 21.9554 73.3242 22.4038C73.4992 22.8523 73.882 23.6179 74.1554 24.0991C74.4289 24.5804 74.8773 25.2694 75.1507 25.6304C75.4242 25.9913 77.1632 27.8069 79.0117 29.6773C82.3695 33.0569 82.3914 33.0679 82.3914 33.5273C82.3914 33.8991 82.3257 34.0632 82.0742 34.3257C81.8554 34.5554 81.6476 34.6538 81.4179 34.6538C81.232 34.6538 80.9476 34.5882 80.7835 34.5007C80.6085 34.4132 79.0992 32.9476 77.4039 31.2413C75.7195 29.546 74.0242 27.7523 73.6523 27.271C73.2695 26.7898 72.6898 25.9476 72.3726 25.4116C72.0554 24.8648 71.5851 23.9351 71.3335 23.3335C71.082 22.7319 70.7429 21.6929 70.5789 21.0366C70.4039 20.3694 70.2179 19.3523 70.1523 18.7616C70.0867 18.1819 70.032 17.2851 70.032 16.771C70.032 16.257 70.1085 15.2835 70.196 14.6054C70.2835 13.9382 70.5023 12.8882 70.6773 12.2866C70.8414 11.6851 71.0929 10.9413 71.2132 10.646C71.3335 10.3398 71.6398 9.68351 71.8914 9.16945C72.1429 8.65539 72.657 7.79133 73.0289 7.25539C73.4117 6.68664 74.2429 5.7132 75.0085 4.95851C75.8507 4.10539 76.6929 3.38351 77.3601 2.94601C77.9289 2.5632 78.8148 2.0382 79.3289 1.78664C79.8429 1.52414 80.7726 1.14133 81.407 0.922578C82.0414 0.703828 83.0695 0.430391 83.7039 0.310078C84.3382 0.189766 85.0273 0.0803907 85.2351 0.0475782C85.4429 0.0257032 86.3835 0.0257032 87.3132 0.0475782Z" fill="#321747"/>
<path d="M84.7101 35.9663C84.8742 35.9663 85.1476 36.0319 85.3226 36.1194C85.4867 36.196 85.6836 36.3929 85.7601 36.5569C85.8257 36.7101 85.8914 36.9616 85.8914 37.1148C85.8914 37.2679 85.7711 37.5413 85.6179 37.7163C85.4648 37.9023 85.1914 38.0773 84.9945 38.1101C84.7429 38.1648 84.5242 38.121 84.2836 37.9788C84.0867 37.8585 83.8679 37.6507 83.8023 37.4976C83.7367 37.3444 83.7148 37.0382 83.7476 36.8194C83.7914 36.546 83.9117 36.3272 84.1086 36.1851C84.2617 36.0647 84.5351 35.9663 84.7101 35.9663V35.9663Z" fill="#321747"/>
<path d="M90.032 35C89.032 34 88.532 31.5 89.532 28C90.3201 25.2416 95.3785 22.2568 97.9188 21.0532L100.032 21.5L103.032 23.5L105.532 26.5L107.032 30L106.532 34L102.032 36.5L98.032 35.5C96.532 35.8333 92.832 36.2 90.032 35Z" fill="white"/>
<path d="M83.3216 24.3226C83.0445 23.871 82.9059 22.7419 83.183 21.1613C83.4014 19.9156 84.803 18.5676 85.5069 18.024L86.0924 18.2258L86.9236 19.129L87.6164 20.4839L88.032 22.0645L87.8934 23.871L86.6466 25L85.5382 24.5484C85.1226 24.6989 84.0974 24.8645 83.3216 24.3226Z" fill="white"/>
<path d="M108.322 24.3226C108.044 23.871 107.906 22.7419 108.183 21.1613C108.401 19.9156 109.803 18.5676 110.507 18.024L111.092 18.2258L111.924 19.129L112.616 20.4839L113.032 22.0645L112.893 23.871L111.647 25L110.538 24.5484C110.123 24.6989 109.097 24.8645 108.322 24.3226Z" fill="white"/>
<path d="M101.322 16.3226C101.044 15.871 100.906 14.7419 101.183 13.1613C101.401 11.9156 102.803 10.5676 103.507 10.024L104.092 10.2258L104.924 11.129L105.616 12.4839L106.032 14.0645L105.893 15.871L104.647 17L103.538 16.5484C103.123 16.6989 102.097 16.8645 101.322 16.3226Z" fill="white"/>
<path d="M90.3216 16.3226C90.0445 15.871 89.9059 14.7419 90.183 13.1613C90.4014 11.9156 91.803 10.5676 92.5069 10.024L93.0924 10.2258L93.9236 11.129L94.6164 12.4839L95.032 14.0645L94.8934 15.871L93.6466 17L92.5382 16.5484C92.1226 16.6989 91.0974 16.8645 90.3216 16.3226Z" fill="white"/>
<path fill-rule="evenodd" clip-rule="evenodd" d="M97.9773 19.7898C98.4039 19.7788 99.0383 19.8554 99.3992 19.9538C99.7602 20.0413 100.329 20.2601 100.657 20.446C101.105 20.6757 102.046 21.5507 104.332 23.8476C107.198 26.7241 107.438 26.9976 107.799 27.7632C108.007 28.2116 108.248 28.8569 108.324 29.1851C108.401 29.5132 108.466 30.2351 108.466 30.771C108.455 31.3616 108.379 32.0179 108.27 32.4116C108.16 32.7726 107.909 33.3851 107.701 33.7788C107.504 34.1726 107.099 34.7523 106.815 35.0804C106.52 35.3976 105.951 35.9007 105.524 36.1741C105.098 36.4585 104.387 36.8085 103.938 36.9507C103.249 37.1804 102.91 37.2241 101.86 37.2132C100.843 37.2132 100.46 37.1585 99.8914 36.9616C99.4977 36.8304 98.9508 36.5679 98.6555 36.3929C98.3711 36.2179 98.0977 36.0757 98.032 36.0757C97.9664 36.0757 97.693 36.2179 97.4086 36.3929C97.1133 36.5679 96.5664 36.8194 96.1727 36.9507C95.7789 37.071 95.0898 37.2023 94.6414 37.246C94.193 37.2788 93.5039 37.2569 93.1102 37.1913C92.7164 37.1148 92.082 36.9398 91.6883 36.7757C91.2945 36.6226 90.682 36.2835 90.3211 36.0319C89.9602 35.7694 89.457 35.321 89.2055 35.0257C88.943 34.7304 88.5711 34.1726 88.3633 33.7788C88.1555 33.3851 87.9039 32.7726 87.7945 32.4116C87.6742 32.0069 87.5977 31.3835 87.5977 30.771C87.5977 30.2351 87.6633 29.5132 87.7398 29.1851C87.8164 28.8569 88.057 28.2116 88.2648 27.7632C88.6258 26.9976 88.8664 26.7241 91.732 23.8476C94.007 21.5616 94.9586 20.6757 95.407 20.4351C95.7352 20.2601 96.282 20.0413 96.6102 19.9538C96.9383 19.8663 97.5617 19.7898 97.9773 19.7898V19.7898ZM96.282 22.4804C96.0742 22.6116 94.6852 23.946 93.1977 25.4335C91.0102 27.6319 90.4414 28.2663 90.2227 28.7476C90.0695 29.0757 89.8945 29.6444 89.818 30.0054C89.7305 30.4866 89.7305 30.8476 89.8289 31.3726C89.8945 31.7663 90.0914 32.346 90.2445 32.6741C90.4086 32.9913 90.7367 33.4616 90.9883 33.7132C91.2289 33.9538 91.6445 34.2929 91.918 34.4569C92.1805 34.621 92.7164 34.8288 93.1102 34.9382C93.5914 35.0585 94.0398 35.1023 94.4773 35.0585C94.8383 35.0257 95.407 34.8944 95.7352 34.7741C96.0633 34.6429 96.632 34.3038 96.993 34.0194C97.4961 33.6257 97.7367 33.5054 98.032 33.5054C98.3273 33.5054 98.568 33.6257 99.0164 33.9757C99.3445 34.2382 99.8148 34.5444 100.055 34.6648C100.296 34.7741 100.81 34.9273 101.204 35.0038C101.751 35.1023 102.079 35.1023 102.626 35.0038C103.02 34.9382 103.588 34.7523 103.884 34.6101C104.179 34.4569 104.671 34.1069 104.966 33.8116C105.262 33.5273 105.634 33.0132 105.798 32.6851C105.973 32.3569 106.159 31.7663 106.235 31.3726C106.334 30.8476 106.334 30.4976 106.246 30.0054C106.17 29.6444 105.995 29.0757 105.841 28.7476C105.623 28.2663 105.032 27.6101 102.812 25.3788C100.865 23.4101 99.8914 22.5241 99.5086 22.3273C99.1148 22.1195 98.743 22.032 98.1961 21.9991C97.7367 21.9773 97.2773 22.021 97.0477 22.1085C96.8398 22.1851 96.4898 22.3491 96.282 22.4804V22.4804Z" fill="#321747"/>
<path fill-rule="evenodd" clip-rule="evenodd" d="M110.391 17.4929C110.993 17.4819 111.212 17.5366 111.802 17.8319C112.207 18.0398 112.677 18.3898 112.874 18.6304C113.082 18.871 113.366 19.3194 113.509 19.6148C113.651 19.921 113.815 20.4788 113.88 20.8726C113.957 21.3648 113.957 21.8023 113.88 22.2944C113.826 22.6882 113.662 23.2569 113.53 23.5523C113.388 23.8585 113.06 24.3398 112.798 24.6241C112.524 24.9194 112.032 25.2913 111.704 25.4444C111.234 25.6741 110.938 25.7398 110.391 25.7398C109.855 25.7398 109.527 25.6632 109.079 25.4554C108.751 25.2913 108.269 24.9523 108.007 24.6898C107.744 24.4273 107.416 23.9679 107.263 23.6616C107.121 23.3663 106.935 22.7648 106.869 22.3491C106.771 21.7585 106.771 21.4194 106.869 20.8507C106.946 20.4351 107.121 19.8773 107.263 19.5929C107.405 19.2976 107.657 18.9038 107.832 18.696C108.007 18.4882 108.346 18.1929 108.587 18.0288C108.827 17.8648 109.177 17.6788 109.352 17.6132C109.527 17.5476 109.998 17.4929 110.391 17.4929V17.4929ZM109.101 20.9054C109.035 21.1898 108.969 21.5288 108.969 21.671C108.969 21.8023 109.024 22.0976 109.079 22.3273C109.144 22.546 109.352 22.9069 109.549 23.1148C109.735 23.3226 110.041 23.5194 110.227 23.5523C110.446 23.596 110.676 23.5413 110.916 23.3882C111.102 23.2679 111.365 22.9726 111.485 22.7319C111.616 22.4585 111.704 22.0538 111.715 21.671C111.726 21.321 111.66 20.8616 111.573 20.6538C111.485 20.446 111.255 20.1398 111.069 19.9757C110.829 19.7569 110.599 19.6694 110.326 19.6694C110.019 19.6694 109.844 19.7569 109.582 20.0304C109.385 20.2273 109.177 20.5991 109.101 20.9054Z" fill="#321747"/>
<path fill-rule="evenodd" clip-rule="evenodd" d="M85.6726 17.482C86.2304 17.482 86.5257 17.5476 87.0398 17.7882C87.4007 17.9632 87.882 18.3132 88.1116 18.5538C88.3304 18.8054 88.6366 19.2648 88.7898 19.5601C88.9429 19.8663 89.1179 20.4351 89.1945 20.8507C89.2929 21.4085 89.2929 21.7695 89.1945 22.3492C89.1288 22.7648 88.9429 23.3663 88.8007 23.6617C88.6476 23.9679 88.3195 24.4273 88.057 24.6898C87.7945 24.9523 87.3132 25.2913 86.9851 25.4554C86.5366 25.6632 86.2085 25.7398 85.6726 25.7398C85.1257 25.7398 84.8304 25.6742 84.3601 25.4445C84.032 25.2913 83.5398 24.9195 83.2663 24.6242C83.0038 24.3398 82.6757 23.8585 82.5445 23.5523C82.4023 23.257 82.2382 22.6882 82.1835 22.2945C82.107 21.8023 82.107 21.3648 82.1835 20.8726C82.2491 20.4788 82.4132 19.921 82.5554 19.6148C82.6976 19.3195 82.982 18.871 83.1898 18.6304C83.3976 18.3788 83.857 18.0398 84.2507 17.8429C84.8304 17.5476 85.082 17.482 85.6726 17.482V17.482ZM84.4913 20.6538C84.4038 20.8617 84.3382 21.321 84.3491 21.671C84.3601 22.0538 84.4476 22.4585 84.5788 22.732C84.6991 22.9726 84.9616 23.2679 85.1585 23.3882C85.3991 23.5413 85.607 23.596 85.8366 23.5523C86.0226 23.5195 86.296 23.3554 86.471 23.1913C86.6351 23.0273 86.8538 22.6554 86.9523 22.3492C87.0616 21.9882 87.0945 21.6382 87.0507 21.3429C87.0179 21.0804 86.8866 20.6757 86.7663 20.4351C86.646 20.1945 86.4382 19.921 86.307 19.8335C86.1648 19.746 85.9023 19.6695 85.7054 19.6695C85.4866 19.6695 85.2351 19.7788 85.0054 19.9757C84.8085 20.1398 84.5788 20.446 84.4913 20.6538V20.6538Z" fill="#321747"/>
<path d="M118.551 10.9195C118.693 10.9195 118.966 10.996 119.141 11.0835C119.371 11.2038 119.59 11.4773 119.863 12.046C120.082 12.4726 120.399 13.2492 120.563 13.7632C120.727 14.2773 120.935 15.1085 121.001 15.6226C121.088 16.1913 121.121 17.0663 121.077 17.8648C121.045 18.7726 120.935 19.5163 120.738 20.271C120.574 20.8726 120.355 21.507 120.257 21.6929C120.137 21.8898 119.907 22.0648 119.688 22.1413C119.48 22.207 119.207 22.2398 119.087 22.2179C118.966 22.196 118.726 22.0538 118.562 21.8788C118.343 21.671 118.255 21.4742 118.255 21.2007C118.266 20.9929 118.354 20.5445 118.474 20.2163C118.584 19.8882 118.737 19.2538 118.802 18.8163C118.868 18.3898 118.923 17.7007 118.923 17.296C118.923 16.8804 118.868 16.2351 118.813 15.8413C118.748 15.4476 118.616 14.8898 118.529 14.5835C118.43 14.2882 118.157 13.6101 117.927 13.0851C117.632 12.407 117.512 12.0242 117.555 11.7945C117.588 11.6085 117.752 11.346 117.949 11.1929C118.135 11.0398 118.409 10.9195 118.551 10.9195V10.9195Z" fill="#321747"/>
<path fill-rule="evenodd" clip-rule="evenodd" d="M103.446 8.98352C104.135 8.99446 104.452 9.07102 104.923 9.30071C105.251 9.45383 105.765 9.82571 106.049 10.121C106.344 10.4054 106.749 10.9851 106.957 11.4116C107.165 11.8273 107.384 12.4726 107.449 12.8335C107.515 13.1945 107.537 13.8507 107.504 14.2882C107.471 14.7148 107.329 15.382 107.187 15.7648C107.055 16.1366 106.771 16.6945 106.552 16.9898C106.334 17.296 105.918 17.7116 105.623 17.9304C105.327 18.1491 104.868 18.4116 104.594 18.5101C104.299 18.6304 103.796 18.707 103.337 18.7179C102.713 18.7179 102.44 18.6632 101.86 18.3898C101.434 18.1929 100.93 17.8538 100.613 17.5257C100.318 17.2304 99.9242 16.6507 99.7164 16.2241C99.4976 15.7757 99.2898 15.1195 99.2242 14.6382C99.1257 14.0148 99.1148 13.621 99.2132 12.9976C99.2898 12.5054 99.4976 11.871 99.7164 11.4116C99.9679 10.8976 100.296 10.4491 100.734 10.0445C101.116 9.67258 101.609 9.34446 101.969 9.19133C102.451 9.0054 102.757 8.96165 103.446 8.98352V8.98352ZM102.002 11.7398C101.937 11.8601 101.762 12.2101 101.63 12.5054C101.477 12.8554 101.379 13.282 101.379 13.7085C101.368 14.0695 101.444 14.6054 101.532 14.9007C101.619 15.207 101.871 15.6335 102.079 15.8632C102.287 16.1038 102.659 16.3554 102.899 16.432C103.184 16.5304 103.468 16.5523 103.719 16.4866C103.949 16.432 104.277 16.2132 104.551 15.9288C104.868 15.6007 105.065 15.2616 105.196 14.8023C105.327 14.3429 105.371 13.9601 105.327 13.5445C105.294 13.2163 105.185 12.7679 105.109 12.5601C105.021 12.3523 104.802 12.0132 104.638 11.8054C104.463 11.6085 104.19 11.3679 104.015 11.2913C103.851 11.2038 103.534 11.1382 103.304 11.1382C103.085 11.1382 102.724 11.2257 102.516 11.3351C102.309 11.4335 102.079 11.6195 102.002 11.7398V11.7398Z" fill="#321747"/>
<path fill-rule="evenodd" clip-rule="evenodd" d="M92.7054 8.95071C93.2085 8.95071 93.6351 9.02728 94.0616 9.19134C94.4773 9.3554 94.9148 9.65071 95.3304 10.0445C95.7679 10.4492 96.096 10.8867 96.3476 11.4117C96.5663 11.8601 96.7741 12.5163 96.8398 12.9976C96.9382 13.621 96.9491 14.0148 96.8507 14.6382C96.7741 15.1304 96.5663 15.7648 96.3476 16.2242C96.1398 16.6507 95.746 17.2304 95.4507 17.5257C95.1335 17.8538 94.6304 18.1929 94.2038 18.3898C93.6241 18.6523 93.3507 18.7179 92.7273 18.7179C92.1257 18.7179 91.8195 18.6523 91.3054 18.4226C90.9445 18.2585 90.4741 17.9851 90.2663 17.821C90.0585 17.646 89.6976 17.2523 89.4788 16.9242C89.2491 16.596 88.9648 16.0382 88.8445 15.6773C88.7241 15.3163 88.5929 14.671 88.5601 14.2554C88.5163 13.8398 88.5491 13.1945 88.6148 12.8335C88.6804 12.4726 88.8991 11.8273 89.107 11.4117C89.3148 10.996 89.6429 10.471 89.8507 10.2523C90.0476 10.0445 90.4085 9.73821 90.6491 9.57415C90.8898 9.41009 91.2835 9.20228 91.5241 9.11478C91.7648 9.02728 92.2898 8.96165 92.6945 8.95071H92.7054ZM91.3601 11.8601C91.2288 12.0351 91.0648 12.3523 90.9773 12.5601C90.8898 12.7679 90.7804 13.2163 90.7476 13.5445C90.7038 13.9601 90.7476 14.3429 90.8788 14.8023C91.0101 15.2617 91.207 15.6007 91.5241 15.9288C91.7976 16.2132 92.1257 16.432 92.3554 16.4867C92.607 16.5523 92.8913 16.5304 93.1757 16.432C93.4163 16.3554 93.7882 16.1038 93.996 15.8632C94.2038 15.6335 94.4554 15.207 94.5429 14.9007C94.6304 14.6054 94.707 14.0695 94.696 13.7085C94.696 13.282 94.5976 12.8554 94.4445 12.5054C94.3132 12.1992 94.0945 11.8382 93.9632 11.707C93.832 11.5648 93.5913 11.3788 93.4163 11.2913C93.2523 11.2038 92.9351 11.1382 92.7054 11.1382C92.4866 11.1382 92.1366 11.2367 91.9398 11.346C91.7429 11.4554 91.4804 11.696 91.3601 11.8601V11.8601Z" fill="#321747"/>
<path d="M7.296 112.368C6.976 112.368 6.72 112.272 6.528 112.08C6.336 111.888 6.24 111.632 6.24 111.312V90.1918H1.968C1.648 90.1918 1.392 90.0958 1.2 89.9038C1.008 89.7118 0.912 89.4558 0.912 89.1358V88.4638C0.912 88.1438 1.008 87.8878 1.2 87.6958C1.392 87.5038 1.648 87.4078 1.968 87.4078H6.24V84.6718C6.24 83.2318 6.432 81.9198 6.816 80.7358C7.232 79.5518 7.952 78.6078 8.976 77.9038C10.032 77.1998 11.536 76.8478 13.488 76.8478H15.984C16.304 76.8478 16.56 76.9438 16.752 77.1358C16.944 77.3278 17.04 77.5838 17.04 77.9038V78.5758C17.04 78.8958 16.944 79.1518 16.752 79.3438C16.56 79.5358 16.304 79.6318 15.984 79.6318H13.488C11.792 79.6318 10.64 80.0958 10.032 81.0238C9.456 81.9198 9.168 83.2158 9.168 84.9118V87.4078H19.776V77.9038C19.776 77.5838 19.872 77.3278 20.064 77.1358C20.256 76.9438 20.512 76.8478 20.832 76.8478H21.648C21.968 76.8478 22.224 76.9438 22.416 77.1358C22.608 77.3278 22.704 77.5838 22.704 77.9038V111.312C22.704 111.632 22.608 111.888 22.416 112.08C22.224 112.272 21.968 112.368 21.648 112.368H20.832C20.512 112.368 20.256 112.272 20.064 112.08C19.872 111.888 19.776 111.632 19.776 111.312V90.1918H9.168V111.312C9.168 111.632 9.072 111.888 8.88 112.08C8.688 112.272 8.432 112.368 8.112 112.368H7.296ZM39.873 112.848C37.697 112.848 35.889 112.384 34.449 111.456C33.041 110.496 31.985 109.2 31.281 107.568C30.609 105.936 30.273 104.112 30.273 102.096V88.4638C30.273 88.1438 30.369 87.8878 30.561 87.6958C30.753 87.5038 31.009 87.4078 31.329 87.4078H32.145C32.465 87.4078 32.721 87.5038 32.913 87.6958C33.105 87.8878 33.201 88.1438 33.201 88.4638V101.856C33.201 107.328 35.585 110.064 40.353 110.064C42.625 110.064 44.449 109.344 45.825 107.904C47.201 106.432 47.889 104.416 47.889 101.856V88.4638C47.889 88.1438 47.985 87.8878 48.177 87.6958C48.369 87.5038 48.625 87.4078 48.945 87.4078H49.761C50.081 87.4078 50.337 87.5038 50.529 87.6958C50.721 87.8878 50.817 88.1438 50.817 88.4638V111.312C50.817 111.632 50.721 111.888 50.529 112.08C50.337 112.272 50.081 112.368 49.761 112.368H48.945C48.625 112.368 48.369 112.272 48.177 112.08C47.985 111.888 47.889 111.632 47.889 111.312V109.056C47.025 110.176 45.985 111.088 44.769 111.792C43.585 112.496 41.953 112.848 39.873 112.848ZM61.9991 112.368C61.6791 112.368 61.4231 112.272 61.2311 112.08C61.0391 111.888 60.9431 111.632 60.9431 111.312V90.1918H56.6711C56.3511 90.1918 56.0951 90.0958 55.9031 89.9038C55.7111 89.7118 55.6151 89.4558 55.6151 89.1358V88.4638C55.6151 88.1438 55.7111 87.8878 55.9031 87.6958C56.0951 87.5038 56.3511 87.4078 56.6711 87.4078H60.9431V84.6718C60.9431 83.2318 61.1351 81.9198 61.5191 80.7358C61.9351 79.5518 62.6551 78.6078 63.6791 77.9038C64.7351 77.1998 66.2391 76.8478 68.1911 76.8478H70.6871C71.0071 76.8478 71.2631 76.9438 71.4551 77.1358C71.6471 77.3278 71.7431 77.5838 71.7431 77.9038V78.5758C71.7431 78.8958 71.6471 79.1518 71.4551 79.3438C71.2631 79.5358 71.0071 79.6318 70.6871 79.6318H68.1911C66.4951 79.6318 65.3431 80.0958 64.7351 81.0238C64.1591 81.9198 63.8711 83.2158 63.8711 84.9118V87.4078H74.4791V84.6718C74.4791 83.2318 74.6711 81.9198 75.0551 80.7358C75.4711 79.5518 76.1911 78.6078 77.2151 77.9038C78.2711 77.1998 79.7751 76.8478 81.7271 76.8478H84.2231C84.5431 76.8478 84.7991 76.9438 84.9911 77.1358C85.1831 77.3278 85.2791 77.5838 85.2791 77.9038V78.5758C85.2791 78.8958 85.1831 79.1518 84.9911 79.3438C84.7991 79.5358 84.5431 79.6318 84.2231 79.6318H81.7271C80.0311 79.6318 78.8791 80.0958 78.2711 81.0238C77.6951 81.9198 77.4071 83.2158 77.4071 84.9118V87.4078H83.7431C84.0631 87.4078 84.3191 87.5038 84.5111 87.6958C84.7031 87.8878 84.7991 88.1438 84.7991 88.4638V89.1358C84.7991 89.4558 84.7031 89.7118 84.5111 89.9038C84.3191 90.0958 84.0631 90.1918 83.7431 90.1918H77.4071V111.312C77.4071 111.632 77.3111 111.888 77.1191 112.08C76.9271 112.272 76.6711 112.368 76.3511 112.368H75.5351C75.2151 112.368 74.9591 112.272 74.7671 112.08C74.5751 111.888 74.4791 111.632 74.4791 111.312V90.1918H63.8711V111.312C63.8711 111.632 63.7751 111.888 63.5831 112.08C63.3911 112.272 63.1351 112.368 62.8151 112.368H61.9991Z" fill="#321747"/>
<path d="M97.692 112.848C95.9 112.848 94.364 112.624 93.084 112.176C91.804 111.728 90.764 111.184 89.964 110.544C89.164 109.904 88.556 109.264 88.14 108.624C87.756 107.984 87.548 107.472 87.516 107.088C87.484 106.736 87.596 106.464 87.852 106.272C88.108 106.08 88.364 105.984 88.62 105.984H90.732C90.924 105.984 91.068 106.016 91.164 106.08C91.292 106.112 91.452 106.24 91.644 106.464C92.06 106.912 92.524 107.36 93.036 107.808C93.548 108.256 94.172 108.624 94.908 108.912C95.676 109.2 96.62 109.344 97.74 109.344C99.372 109.344 100.716 109.04 101.772 108.432C102.828 107.792 103.356 106.864 103.356 105.648C103.356 104.848 103.132 104.208 102.684 103.728C102.268 103.248 101.5 102.816 100.38 102.432C99.292 102.048 97.788 101.648 95.868 101.232C93.948 100.784 92.428 100.24 91.308 99.5998C90.188 98.9278 89.388 98.1438 88.908 97.2478C88.428 96.3198 88.188 95.2798 88.188 94.1278C88.188 92.9438 88.54 91.8078 89.244 90.7198C89.948 89.5998 90.972 88.6878 92.316 87.9838C93.692 87.2798 95.404 86.9278 97.452 86.9278C99.116 86.9278 100.54 87.1358 101.724 87.5518C102.908 87.9678 103.884 88.4958 104.652 89.1358C105.42 89.7438 105.996 90.3518 106.38 90.9598C106.764 91.5678 106.972 92.0798 107.004 92.4958C107.036 92.8158 106.94 93.0878 106.716 93.3118C106.492 93.5038 106.236 93.5998 105.948 93.5998H103.932C103.708 93.5998 103.516 93.5518 103.356 93.4558C103.228 93.3598 103.1 93.2478 102.972 93.1198C102.652 92.7038 102.268 92.2878 101.82 91.8718C101.404 91.4558 100.844 91.1198 100.14 90.8638C99.468 90.5758 98.572 90.4318 97.452 90.4318C95.852 90.4318 94.652 90.7678 93.852 91.4398C93.052 92.1118 92.652 92.9598 92.652 93.9838C92.652 94.5918 92.828 95.1358 93.18 95.6158C93.532 96.0958 94.204 96.5278 95.196 96.9118C96.188 97.2958 97.66 97.7118 99.612 98.1598C101.724 98.5758 103.388 99.1358 104.604 99.8398C105.82 100.544 106.684 101.36 107.196 102.288C107.708 103.216 107.964 104.288 107.964 105.504C107.964 106.848 107.564 108.08 106.764 109.2C105.996 110.32 104.844 111.216 103.308 111.888C101.804 112.528 99.932 112.848 97.692 112.848ZM114.673 112.368C114.353 112.368 114.081 112.272 113.857 112.08C113.665 111.856 113.569 111.584 113.569 111.264V79.3918C113.569 79.0718 113.665 78.8158 113.857 78.6238C114.081 78.3998 114.353 78.2878 114.673 78.2878H117.073C117.425 78.2878 117.697 78.3998 117.889 78.6238C118.081 78.8158 118.177 79.0718 118.177 79.3918V90.5758C119.041 89.4878 120.097 88.6078 121.345 87.9358C122.593 87.2638 124.177 86.9278 126.097 86.9278C128.177 86.9278 129.937 87.3918 131.377 88.3198C132.849 89.2158 133.953 90.4798 134.689 92.1118C135.457 93.7118 135.841 95.5838 135.841 97.7278V111.264C135.841 111.584 135.745 111.856 135.553 112.08C135.361 112.272 135.089 112.368 134.737 112.368H132.337C132.017 112.368 131.745 112.272 131.521 112.08C131.329 111.856 131.233 111.584 131.233 111.264V97.9678C131.233 95.7278 130.689 93.9838 129.601 92.7358C128.513 91.4558 126.913 90.8158 124.801 90.8158C122.817 90.8158 121.217 91.4558 120.001 92.7358C118.785 93.9838 118.177 95.7278 118.177 97.9678V111.264C118.177 111.584 118.081 111.856 117.889 112.08C117.697 112.272 117.425 112.368 117.073 112.368H114.673ZM152.995 112.848C150.563 112.848 148.531 112.384 146.899 111.456C145.267 110.528 144.019 109.248 143.155 107.616C142.291 105.952 141.811 104.064 141.715 101.952C141.683 101.408 141.667 100.72 141.667 99.8878C141.667 99.0238 141.683 98.3358 141.715 97.8238C141.811 95.6798 142.291 93.7918 143.155 92.1598C144.051 90.5278 145.315 89.2478 146.947 88.3198C148.579 87.3918 150.595 86.9278 152.995 86.9278C155.395 86.9278 157.411 87.3918 159.043 88.3198C160.675 89.2478 161.923 90.5278 162.787 92.1598C163.683 93.7918 164.179 95.6798 164.275 97.8238C164.307 98.3358 164.323 99.0238 164.323 99.8878C164.323 100.72 164.307 101.408 164.275 101.952C164.179 104.064 163.699 105.952 162.835 107.616C161.971 109.248 160.723 110.528 159.091 111.456C157.459 112.384 155.427 112.848 152.995 112.848ZM152.995 109.152C154.979 109.152 156.563 108.528 157.747 107.28C158.931 106 159.571 104.144 159.667 101.712C159.699 101.232 159.715 100.624 159.715 99.8878C159.715 99.1518 159.699 98.5438 159.667 98.0638C159.571 95.6318 158.931 93.7918 157.747 92.5438C156.563 91.2638 154.979 90.6238 152.995 90.6238C151.011 90.6238 149.411 91.2638 148.195 92.5438C147.011 93.7918 146.387 95.6318 146.323 98.0638C146.291 98.5438 146.275 99.1518 146.275 99.8878C146.275 100.624 146.291 101.232 146.323 101.712C146.387 104.144 147.011 106 148.195 107.28C149.411 108.528 151.011 109.152 152.995 109.152ZM171.485 121.488C171.165 121.488 170.893 121.376 170.669 121.152C170.477 120.96 170.381 120.704 170.381 120.384V88.5118C170.381 88.1918 170.477 87.9358 170.669 87.7438C170.893 87.5198 171.165 87.4078 171.485 87.4078H173.693C174.013 87.4078 174.269 87.5198 174.461 87.7438C174.685 87.9358 174.797 88.1918 174.797 88.5118V90.6238C175.565 89.5678 176.589 88.6878 177.869 87.9838C179.149 87.2798 180.749 86.9278 182.669 86.9278C184.461 86.9278 185.981 87.2318 187.229 87.8398C188.509 88.4478 189.549 89.2798 190.349 90.3358C191.181 91.3918 191.805 92.5918 192.221 93.9358C192.637 95.2798 192.861 96.7198 192.893 98.2558C192.925 98.7678 192.941 99.3118 192.941 99.8878C192.941 100.464 192.925 101.008 192.893 101.52C192.861 103.024 192.637 104.464 192.221 105.84C191.805 107.184 191.181 108.384 190.349 109.44C189.549 110.464 188.509 111.296 187.229 111.936C185.981 112.544 184.461 112.848 182.669 112.848C180.813 112.848 179.245 112.512 177.965 111.84C176.717 111.136 175.693 110.272 174.893 109.248V120.384C174.893 120.704 174.797 120.96 174.605 121.152C174.413 121.376 174.141 121.488 173.789 121.488H171.485ZM181.661 108.96C183.325 108.96 184.621 108.608 185.549 107.904C186.509 107.168 187.197 106.224 187.613 105.072C188.029 103.888 188.269 102.624 188.333 101.28C188.365 100.352 188.365 99.4238 188.333 98.4958C188.269 97.1518 188.029 95.9038 187.613 94.7518C187.197 93.5678 186.509 92.6238 185.549 91.9198C184.621 91.1838 183.325 90.8158 181.661 90.8158C180.093 90.8158 178.813 91.1838 177.821 91.9198C176.861 92.6558 176.141 93.5998 175.661 94.7518C175.213 95.8718 174.957 97.0238 174.893 98.2078C174.861 98.7198 174.845 99.3278 174.845 100.032C174.845 100.736 174.861 101.36 174.893 101.904C174.925 103.024 175.181 104.128 175.661 105.216C176.173 106.304 176.925 107.2 177.917 107.904C178.909 108.608 180.157 108.96 181.661 108.96Z" fill="#FF8484"/>
</svg>
