<svg width="56" height="52" viewBox="0 0 56 52" fill="none" xmlns="http://www.w3.org/2000/svg">
<path d="M4.49995 27L28 50.1839C34.8333 44.0172 49.2 30.7471 52 27C55.5 22.3161 54.5 15.1839 54.5 12.6839C54.5 10.1839 48.5 1.1839 40.5 1.1839C34.1 1.1839 29.5 3.85057 28 5.1839C26.3333 3.85057 21.7 1.1839 16.5 1.1839C10 1.1839 3.99995 6.6839 1.49995 12.6839C-0.500049 17.4839 2.66662 24.228 4.49995 27Z" fill="#FF8484"/>
<path d="M17.2813 0.0475782C18.3859 0.0694532 19.3594 0.156953 20.0703 0.310078C20.6719 0.430391 21.6344 0.681953 22.2031 0.867891C22.7719 1.05383 23.7344 1.45852 24.3359 1.75383C24.9375 2.06008 25.725 2.50852 26.0859 2.74914C26.4469 2.98977 27.0266 3.40539 28 4.1382L29.1266 3.30695C29.7391 2.85852 30.8109 2.19133 31.5 1.84133C32.1891 1.49133 33.2281 1.05383 33.7969 0.867891C34.3656 0.681953 35.175 0.452266 35.6016 0.364766C36.0281 0.277266 36.8375 0.156953 37.4063 0.0803906C38.0078 0.00382816 39.025 -0.0180469 39.8125 0.0147656C40.5672 0.0475781 41.7156 0.189766 42.3828 0.310078C43.05 0.441328 44.0781 0.725703 44.6797 0.933516C45.2813 1.14133 46.1891 1.52414 46.7031 1.78664C47.2172 2.0382 48.1031 2.5632 48.6719 2.94601C49.35 3.39445 50.1703 4.08351 51.0234 4.94758C51.7781 5.70226 52.6203 6.69758 53.0031 7.25539C53.375 7.80226 53.9 8.67726 54.1734 9.22414C54.4469 9.77101 54.8406 10.7226 55.0594 11.357C55.2781 11.9913 55.5734 13.0413 55.7047 13.7085C55.9016 14.7038 55.9453 15.2616 55.9344 16.9351C55.9234 18.5866 55.8797 19.1663 55.6828 20.1069C55.5516 20.7413 55.2891 21.7038 55.1031 22.2398C54.9281 22.7757 54.5563 23.6726 54.2938 24.2085C54.0313 24.7444 53.5281 25.6413 53.1672 26.1773C52.8172 26.7132 52.0297 27.6976 51.4281 28.3648C50.8266 29.0319 45.4453 34.446 39.4734 40.4179C31.3141 48.5663 28.525 51.2898 28.2734 51.3444C28.0984 51.3773 27.825 51.3773 27.6719 51.3335C27.5188 51.2898 25.2875 49.1569 22.4438 46.3241C19.7094 43.6007 17.4125 41.2491 17.325 41.0741C17.2375 40.9101 17.1719 40.6257 17.1719 40.4507C17.1719 40.2319 17.2813 40.0132 17.4891 39.7944C17.7516 39.5319 17.9047 39.4663 18.7578 39.4663L28 48.7085L39.0031 37.7163C45.0516 31.6679 50.3125 26.3304 50.6844 25.8491C51.0672 25.3679 51.6031 24.5804 51.8766 24.0991C52.15 23.6179 52.5328 22.8523 52.7078 22.4038C52.8828 21.9554 53.1563 21.1132 53.3094 20.5444C53.4625 19.9757 53.6484 19.0132 53.7141 18.4116C53.7906 17.8101 53.8125 16.8038 53.7797 16.1695C53.7469 15.5351 53.6156 14.5288 53.4953 13.9273C53.375 13.3257 53.1453 12.4616 52.9813 12.0132C52.8281 11.5648 52.4344 10.6788 52.1063 10.0445C51.7781 9.41008 51.2859 8.6007 51.0234 8.23976C50.75 7.87883 50.225 7.23351 49.8422 6.81789C49.4594 6.39133 48.6609 5.68039 48.0594 5.23195C47.4688 4.77258 46.4844 4.14914 45.8828 3.84289C45.2813 3.53664 44.4172 3.15383 43.9688 3.0007C43.5203 2.83664 42.6563 2.59602 42.0547 2.4757C41.1906 2.28977 40.5781 2.23508 39.1563 2.23508C37.7016 2.23508 37.1328 2.28977 36.2031 2.48664C35.5688 2.61789 34.5844 2.90227 34.0156 3.12102C33.4469 3.32883 32.6375 3.68976 32.2109 3.91945C31.7844 4.14914 31.1063 4.58664 30.6797 4.88195C30.2531 5.1882 29.5859 5.72414 29.1813 6.09601C28.5359 6.6757 28.3828 6.7632 28 6.7632C27.6172 6.7632 27.475 6.6757 26.8297 6.09601C26.4141 5.72414 25.7469 5.17726 25.3203 4.88195C24.9047 4.58664 24.2156 4.14914 23.7891 3.91945C23.3734 3.68976 22.5531 3.32883 21.9844 3.12102C21.4156 2.90227 20.4313 2.61789 19.7969 2.48664C18.8672 2.28977 18.2984 2.23508 16.8438 2.23508C15.4219 2.23508 14.8094 2.28977 13.9453 2.4757C13.3438 2.59602 12.4797 2.83664 12.0313 3.0007C11.5828 3.15383 10.8172 3.49289 10.3359 3.73351C9.85469 3.97414 9.14375 4.37883 8.75 4.63039C8.35625 4.88195 7.65625 5.41789 7.19688 5.82258C6.72656 6.21633 6.07031 6.87258 5.73125 7.27726C5.39219 7.69289 4.93281 8.29445 4.70313 8.62258C4.47344 8.9507 4.06875 9.66164 3.79531 10.2085C3.53281 10.7445 3.18281 11.532 3.02969 11.9585C2.87656 12.3741 2.64688 13.2163 2.52656 13.8179C2.39531 14.4195 2.25313 15.4476 2.22031 16.1148C2.1875 16.782 2.20938 17.7991 2.28594 18.4116C2.35156 19.0132 2.5375 19.9757 2.69063 20.5444C2.84375 21.1132 3.11719 21.9554 3.29219 22.4038C3.46719 22.8523 3.85 23.6179 4.12344 24.0991C4.39688 24.5804 4.84531 25.2694 5.11875 25.6304C5.39219 25.9913 7.13125 27.8069 8.97969 29.6773C12.3375 33.0569 12.3594 33.0679 12.3594 33.5273C12.3594 33.8991 12.2938 34.0632 12.0422 34.3257C11.8234 34.5554 11.6156 34.6538 11.3859 34.6538C11.2 34.6538 10.9156 34.5882 10.7516 34.5007C10.5766 34.4132 9.06719 32.9476 7.37188 31.2413C5.6875 29.546 3.99219 27.7523 3.62031 27.271C3.2375 26.7898 2.65781 25.9476 2.34063 25.4116C2.02344 24.8648 1.55313 23.9351 1.30156 23.3335C1.05 22.7319 0.710938 21.6929 0.546875 21.0366C0.371875 20.3694 0.185938 19.3523 0.120313 18.7616C0.0546875 18.1819 0 17.2851 0 16.771C0 16.257 0.0765625 15.2835 0.164063 14.6054C0.251563 13.9382 0.470313 12.8882 0.645313 12.2866C0.809375 11.6851 1.06094 10.9413 1.18125 10.646C1.30156 10.3398 1.60781 9.68351 1.85938 9.16945C2.11094 8.65539 2.625 7.79133 2.99688 7.25539C3.37969 6.68664 4.21094 5.7132 4.97656 4.95851C5.81875 4.10539 6.66094 3.38351 7.32813 2.94601C7.89688 2.5632 8.78281 2.0382 9.29688 1.78664C9.81094 1.52414 10.7406 1.14133 11.375 0.922578C12.0094 0.703828 13.0375 0.430391 13.6719 0.310078C14.3063 0.189766 14.9953 0.0803907 15.2031 0.0475782C15.4109 0.0257032 16.3516 0.0257032 17.2813 0.0475782Z" fill="#321747"/>
<path d="M14.6781 35.9663C14.8422 35.9663 15.1156 36.0319 15.2906 36.1194C15.4547 36.196 15.6516 36.3929 15.7281 36.5569C15.7938 36.7101 15.8594 36.9616 15.8594 37.1148C15.8594 37.2679 15.7391 37.5413 15.5859 37.7163C15.4328 37.9023 15.1594 38.0773 14.9625 38.1101C14.7109 38.1648 14.4922 38.121 14.2516 37.9788C14.0547 37.8585 13.8359 37.6507 13.7703 37.4976C13.7047 37.3444 13.6828 37.0382 13.7156 36.8194C13.7594 36.546 13.8797 36.3272 14.0766 36.1851C14.2297 36.0647 14.5031 35.9663 14.6781 35.9663V35.9663Z" fill="#321747"/>
<path d="M20 35C19 34 18.5 31.5 19.5 28C20.2882 25.2416 25.3465 22.2568 27.8868 21.0532L30 21.5L33 23.5L35.5 26.5L37 30L36.5 34L32 36.5L28 35.5C26.5 35.8333 22.8 36.2 20 35Z" fill="white"/>
<path d="M13.2896 24.3226C13.0125 23.871 12.874 22.7419 13.151 21.1613C13.3694 19.9156 14.771 18.5676 15.4749 18.024L16.0604 18.2258L16.8917 19.129L17.5844 20.4839L18 22.0645L17.8615 23.871L16.6146 25L15.5062 24.5484C15.0906 24.6989 14.0654 24.8645 13.2896 24.3226Z" fill="white"/>
<path d="M38.2896 24.3226C38.0125 23.871 37.874 22.7419 38.151 21.1613C38.3694 19.9156 39.771 18.5676 40.4749 18.024L41.0604 18.2258L41.8917 19.129L42.5844 20.4839L43 22.0645L42.8615 23.871L41.6146 25L40.5062 24.5484C40.0906 24.6989 39.0654 24.8645 38.2896 24.3226Z" fill="white"/>
<path d="M31.2896 16.3226C31.0125 15.871 30.874 14.7419 31.151 13.1613C31.3694 11.9156 32.771 10.5676 33.4749 10.024L34.0604 10.2258L34.8917 11.129L35.5844 12.4839L36 14.0645L35.8615 15.871L34.6146 17L33.5062 16.5484C33.0906 16.6989 32.0654 16.8645 31.2896 16.3226Z" fill="white"/>
<path d="M20.2896 16.3226C20.0125 15.871 19.874 14.7419 20.151 13.1613C20.3694 11.9156 21.771 10.5676 22.4749 10.024L23.0604 10.2258L23.8917 11.129L24.5844 12.4839L25 14.0645L24.8615 15.871L23.6146 17L22.5062 16.5484C22.0906 16.6989 21.0654 16.8645 20.2896 16.3226Z" fill="white"/>
<path fill-rule="evenodd" clip-rule="evenodd" d="M27.9454 19.7898C28.3719 19.7789 29.0063 19.8554 29.3672 19.9539C29.7282 20.0414 30.2969 20.2601 30.625 20.446C31.0735 20.6757 32.0141 21.5507 34.3 23.8476C37.1657 26.7242 37.4063 26.9976 37.7672 27.7632C37.975 28.2117 38.2157 28.857 38.2922 29.1851C38.3688 29.5132 38.4344 30.2351 38.4344 30.771C38.4235 31.3617 38.3469 32.0179 38.2376 32.4117C38.1282 32.7726 37.8766 33.3851 37.6688 33.7788C37.4719 34.1726 37.0672 34.7523 36.7829 35.0804C36.4875 35.3976 35.9188 35.9007 35.4922 36.1742C35.0657 36.4585 34.3547 36.8085 33.9063 36.9507C33.2172 37.1804 32.8782 37.2242 31.8282 37.2132C30.811 37.2132 30.4282 37.1585 29.8594 36.9617C29.4657 36.8304 28.9188 36.5679 28.6235 36.3929C28.3391 36.2179 28.0657 36.0757 28 36.0757C27.9344 36.0757 27.661 36.2179 27.3766 36.3929C27.0813 36.5679 26.5344 36.8195 26.1407 36.9507C25.7469 37.071 25.0579 37.2023 24.6094 37.246C24.161 37.2788 23.4719 37.257 23.0782 37.1913C22.6844 37.1148 22.05 36.9398 21.6563 36.7757C21.2625 36.6226 20.65 36.2835 20.2891 36.032C19.9282 35.7695 19.425 35.321 19.1735 35.0257C18.911 34.7304 18.5391 34.1726 18.3313 33.7788C18.1235 33.3851 17.8719 32.7726 17.7625 32.4117C17.6422 32.007 17.5657 31.3835 17.5657 30.771C17.5657 30.2351 17.6313 29.5132 17.7079 29.1851C17.7844 28.857 18.025 28.2117 18.2329 27.7632C18.5938 26.9976 18.8344 26.7242 21.7 23.8476C23.975 21.5617 24.9266 20.6757 25.375 20.4351C25.7032 20.2601 26.25 20.0414 26.5782 19.9539C26.9063 19.8664 27.5297 19.7898 27.9454 19.7898V19.7898ZM26.25 22.4804C26.0422 22.6117 24.6532 23.946 23.1657 25.4335C20.9782 27.632 20.4094 28.2664 20.1907 28.7476C20.0375 29.0757 19.8625 29.6445 19.786 30.0054C19.6985 30.4867 19.6985 30.8476 19.7969 31.3726C19.8625 31.7663 20.0594 32.346 20.2125 32.6742C20.3766 32.9913 20.7047 33.4617 20.9563 33.7132C21.1969 33.9538 21.6125 34.2929 21.886 34.457C22.1485 34.621 22.6844 34.8288 23.0782 34.9382C23.5594 35.0585 24.0079 35.1023 24.4454 35.0585C24.8063 35.0257 25.375 34.8945 25.7032 34.7742C26.0313 34.6429 26.6 34.3038 26.961 34.0195C27.4641 33.6257 27.7047 33.5054 28 33.5054C28.2954 33.5054 28.536 33.6257 28.9844 33.9757C29.3125 34.2382 29.7829 34.5445 30.0235 34.6648C30.2641 34.7742 30.7782 34.9273 31.1719 35.0038C31.7188 35.1023 32.0469 35.1023 32.5938 35.0038C32.9875 34.9382 33.5563 34.7523 33.8516 34.6101C34.1469 34.457 34.6391 34.107 34.9344 33.8117C35.2297 33.5273 35.6016 33.0132 35.7657 32.6851C35.9407 32.357 36.1266 31.7663 36.2032 31.3726C36.3016 30.8476 36.3016 30.4976 36.2141 30.0054C36.1376 29.6445 35.9625 29.0757 35.8094 28.7476C35.5907 28.2664 35.0001 27.6101 32.7797 25.3789C30.8329 23.4101 29.8594 22.5242 29.4766 22.3273C29.0829 22.1195 28.711 22.032 28.1641 21.9992C27.7047 21.9773 27.2454 22.021 27.0157 22.1085C26.8079 22.1851 26.4579 22.3492 26.25 22.4804V22.4804Z" fill="#321747"/>
<path fill-rule="evenodd" clip-rule="evenodd" d="M40.3594 17.4929C40.9609 17.482 41.1797 17.5367 41.7703 17.832C42.175 18.0398 42.6453 18.3898 42.8422 18.6304C43.05 18.871 43.3344 19.3195 43.4766 19.6148C43.6188 19.921 43.7828 20.4789 43.8485 20.8726C43.925 21.3648 43.925 21.8023 43.8485 22.2945C43.7938 22.6882 43.6297 23.257 43.4985 23.5523C43.3563 23.8585 43.0281 24.3398 42.7656 24.6242C42.4922 24.9195 42 25.2914 41.6719 25.4445C41.2016 25.6742 40.9063 25.7398 40.3594 25.7398C39.8234 25.7398 39.4953 25.6632 39.0469 25.4554C38.7188 25.2914 38.2375 24.9523 37.975 24.6898C37.7125 24.4273 37.3844 23.9679 37.2313 23.6617C37.0891 23.3664 36.9031 22.7648 36.8375 22.3492C36.7391 21.7585 36.7391 21.4195 36.8375 20.8507C36.9141 20.4351 37.0891 19.8773 37.2313 19.5929C37.3734 19.2976 37.625 18.9039 37.8 18.696C37.975 18.4882 38.3141 18.1929 38.5547 18.0289C38.7953 17.8648 39.1453 17.6789 39.3203 17.6132C39.4953 17.5476 39.9656 17.4929 40.3594 17.4929V17.4929ZM39.0688 20.9054C39.0031 21.1898 38.9375 21.5289 38.9375 21.671C38.9375 21.8023 38.9922 22.0976 39.0469 22.3273C39.1125 22.546 39.3203 22.907 39.5172 23.1148C39.7031 23.3226 40.0094 23.5195 40.1953 23.5523C40.4141 23.596 40.6438 23.5414 40.8844 23.3882C41.0703 23.2679 41.3328 22.9726 41.4531 22.732C41.5844 22.4585 41.6719 22.0539 41.6828 21.671C41.6938 21.321 41.6281 20.8617 41.5406 20.6539C41.4531 20.446 41.2234 20.1398 41.0375 19.9757C40.7969 19.757 40.5672 19.6695 40.2938 19.6695C39.9875 19.6695 39.8125 19.757 39.55 20.0304C39.3531 20.2273 39.1453 20.5992 39.0688 20.9054Z" fill="#321747"/>
<path fill-rule="evenodd" clip-rule="evenodd" d="M15.6406 17.4819C16.1984 17.4819 16.4937 17.5476 17.0078 17.7882C17.3687 17.9632 17.85 18.3132 18.0797 18.5538C18.2984 18.8054 18.6047 19.2647 18.7578 19.5601C18.9109 19.8663 19.0859 20.4351 19.1625 20.8507C19.2609 21.4085 19.2609 21.7694 19.1625 22.3491C19.0968 22.7647 18.9109 23.3663 18.7687 23.6616C18.6156 23.9679 18.2875 24.4272 18.025 24.6897C17.7625 24.9522 17.2812 25.2913 16.9531 25.4554C16.5047 25.6632 16.1765 25.7397 15.6406 25.7397C15.0937 25.7397 14.7984 25.6741 14.3281 25.4444C14 25.2913 13.5078 24.9194 13.2343 24.6241C12.9718 24.3397 12.6437 23.8585 12.5125 23.5522C12.3703 23.2569 12.2062 22.6882 12.1515 22.2944C12.075 21.8022 12.075 21.3647 12.1515 20.8726C12.2172 20.4788 12.3812 19.921 12.5234 19.6147C12.6656 19.3194 12.95 18.871 13.1578 18.6304C13.3656 18.3788 13.825 18.0397 14.2187 17.8429C14.7984 17.5476 15.05 17.4819 15.6406 17.4819V17.4819ZM14.4593 20.6538C14.3718 20.8616 14.3062 21.321 14.3172 21.671C14.3281 22.0538 14.4156 22.4585 14.5468 22.7319C14.6672 22.9726 14.9297 23.2679 15.1265 23.3882C15.3672 23.5413 15.575 23.596 15.8047 23.5522C15.9906 23.5194 16.264 23.3554 16.439 23.1913C16.6031 23.0272 16.8218 22.6554 16.9203 22.3491C17.0297 21.9882 17.0625 21.6382 17.0187 21.3429C16.9859 21.0804 16.8547 20.6757 16.7343 20.4351C16.614 20.1944 16.4062 19.921 16.275 19.8335C16.1328 19.746 15.8703 19.6694 15.6734 19.6694C15.4547 19.6694 15.2031 19.7788 14.9734 19.9757C14.7765 20.1397 14.5468 20.446 14.4593 20.6538V20.6538Z" fill="#321747"/>
<path d="M48.5188 10.9194C48.661 10.9194 48.9344 10.996 49.1094 11.0835C49.3391 11.2038 49.5579 11.4772 49.8313 12.046C50.0501 12.4726 50.3672 13.2491 50.5313 13.7632C50.6954 14.2772 50.9032 15.1085 50.9688 15.6226C51.0563 16.1913 51.0891 17.0663 51.0454 17.8647C51.0126 18.7726 50.9032 19.5163 50.7063 20.271C50.5422 20.8726 50.3235 21.5069 50.2251 21.6929C50.1047 21.8897 49.8751 22.0647 49.6563 22.1413C49.4485 22.2069 49.1751 22.2397 49.0547 22.2179C48.9344 22.196 48.6938 22.0538 48.5297 21.8788C48.311 21.671 48.2235 21.4741 48.2235 21.2007C48.2344 20.9929 48.3219 20.5444 48.4422 20.2163C48.5516 19.8882 48.7047 19.2538 48.7704 18.8163C48.836 18.3897 48.8907 17.7007 48.8907 17.296C48.8907 16.8804 48.836 16.2351 48.7813 15.8413C48.7157 15.4476 48.5844 14.8897 48.4969 14.5835C48.3985 14.2882 48.1251 13.6101 47.8954 13.0851C47.6001 12.4069 47.4797 12.0241 47.5235 11.7944C47.5563 11.6085 47.7204 11.346 47.9172 11.1929C48.1032 11.0397 48.3766 10.9194 48.5188 10.9194V10.9194Z" fill="#321747"/>
<path fill-rule="evenodd" clip-rule="evenodd" d="M33.4141 8.98349C34.1031 8.99443 34.4203 9.07099 34.8906 9.30068C35.2187 9.4538 35.7328 9.82568 36.0172 10.121C36.3125 10.4054 36.7172 10.9851 36.925 11.4116C37.1328 11.8272 37.3516 12.4726 37.4172 12.8335C37.4828 13.1944 37.5047 13.8507 37.4719 14.2882C37.4391 14.7147 37.2969 15.3819 37.1547 15.7647C37.0234 16.1366 36.7391 16.6944 36.5203 16.9897C36.3016 17.296 35.8859 17.7116 35.5906 17.9304C35.2953 18.1491 34.8359 18.4116 34.5625 18.5101C34.2672 18.6304 33.7641 18.7069 33.3047 18.7179C32.6813 18.7179 32.4078 18.6632 31.8281 18.3897C31.4016 18.1929 30.8984 17.8538 30.5813 17.5257C30.2859 17.2304 29.8922 16.6507 29.6844 16.2241C29.4656 15.7757 29.2578 15.1194 29.1922 14.6382C29.0938 14.0147 29.0828 13.621 29.1813 12.9976C29.2578 12.5054 29.4656 11.871 29.6844 11.4116C29.9359 10.8976 30.2641 10.4491 30.7016 10.0444C31.0844 9.67255 31.5766 9.34443 31.9375 9.1913C32.4188 9.00536 32.725 8.96162 33.4141 8.98349V8.98349ZM31.9703 11.7397C31.9047 11.8601 31.7297 12.2101 31.5984 12.5054C31.4453 12.8554 31.3469 13.2819 31.3469 13.7085C31.3359 14.0694 31.4125 14.6054 31.5 14.9007C31.5875 15.2069 31.8391 15.6335 32.0469 15.8632C32.2547 16.1038 32.6266 16.3554 32.8672 16.4319C33.1516 16.5304 33.4359 16.5522 33.6875 16.4866C33.9172 16.4319 34.2453 16.2132 34.5188 15.9288C34.8359 15.6007 35.0328 15.2616 35.1641 14.8022C35.2953 14.3429 35.3391 13.9601 35.2953 13.5444C35.2625 13.2163 35.1531 12.7679 35.0766 12.5601C34.9891 12.3522 34.7703 12.0132 34.6062 11.8054C34.4312 11.6085 34.1578 11.3679 33.9828 11.2913C33.8188 11.2038 33.5016 11.1382 33.2719 11.1382C33.0531 11.1382 32.6922 11.2257 32.4844 11.3351C32.2766 11.4335 32.0469 11.6194 31.9703 11.7397V11.7397Z" fill="#321747"/>
<path fill-rule="evenodd" clip-rule="evenodd" d="M22.6734 8.95068C23.1765 8.95068 23.6031 9.02725 24.0297 9.19131C24.4453 9.35537 24.8828 9.65068 25.2984 10.0444C25.7359 10.4491 26.064 10.8866 26.3156 11.4116C26.5343 11.8601 26.7422 12.5163 26.8078 12.9976C26.9062 13.621 26.9172 14.0147 26.8187 14.6382C26.7422 15.1304 26.5343 15.7647 26.3156 16.2241C26.1078 16.6507 25.714 17.2304 25.4187 17.5257C25.1015 17.8538 24.5984 18.1929 24.1718 18.3897C23.5922 18.6522 23.3187 18.7179 22.6953 18.7179C22.0937 18.7179 21.7875 18.6522 21.2734 18.4226C20.9125 18.2585 20.4422 17.9851 20.2343 17.821C20.0265 17.646 19.6656 17.2522 19.4468 16.9241C19.2172 16.596 18.9328 16.0382 18.8125 15.6772C18.6922 15.3163 18.5609 14.671 18.5281 14.2554C18.4843 13.8397 18.5172 13.1944 18.5828 12.8335C18.6484 12.4726 18.8672 11.8272 19.075 11.4116C19.2828 10.996 19.6109 10.471 19.8187 10.2522C20.0156 10.0444 20.3765 9.73818 20.6172 9.57412C20.8578 9.41006 21.2515 9.20225 21.4922 9.11475C21.7328 9.02725 22.2578 8.96162 22.6625 8.95068H22.6734ZM21.3281 11.8601C21.1968 12.0351 21.0328 12.3522 20.9453 12.5601C20.8578 12.7679 20.7484 13.2163 20.7156 13.5444C20.6718 13.9601 20.7156 14.3429 20.8468 14.8022C20.9781 15.2616 21.175 15.6007 21.4922 15.9288C21.7656 16.2132 22.0937 16.4319 22.3234 16.4866C22.575 16.5522 22.8593 16.5304 23.1437 16.4319C23.3843 16.3554 23.7562 16.1038 23.964 15.8632C24.1718 15.6335 24.4234 15.2069 24.5109 14.9007C24.5984 14.6054 24.675 14.0694 24.664 13.7085C24.664 13.2819 24.5656 12.8554 24.4125 12.5054C24.2812 12.1991 24.0625 11.8382 23.9312 11.7069C23.8 11.5647 23.5593 11.3788 23.3843 11.2913C23.2203 11.2038 22.9031 11.1382 22.6734 11.1382C22.4547 11.1382 22.1047 11.2366 21.9078 11.346C21.7109 11.4554 21.4484 11.696 21.3281 11.8601V11.8601Z" fill="#321747"/>
</svg>
