<svg width="196" height="57" viewBox="0 0 196 57" fill="none" xmlns="http://www.w3.org/2000/svg">
<path d="M7.296 45C6.976 45 6.72 44.904 6.528 44.712C6.336 44.52 6.24 44.264 6.24 43.944V22.824H1.968C1.648 22.824 1.392 22.728 1.2 22.536C1.008 22.344 0.912 22.088 0.912 21.768V21.096C0.912 20.776 1.008 20.52 1.2 20.328C1.392 20.136 1.648 20.04 1.968 20.04H6.24V17.304C6.24 15.864 6.432 14.552 6.816 13.368C7.232 12.184 7.952 11.24 8.976 10.536C10.032 9.832 11.536 9.48 13.488 9.48H15.984C16.304 9.48 16.56 9.576 16.752 9.768C16.944 9.96 17.04 10.216 17.04 10.536V11.208C17.04 11.528 16.944 11.784 16.752 11.976C16.56 12.168 16.304 12.264 15.984 12.264H13.488C11.792 12.264 10.64 12.728 10.032 13.656C9.456 14.552 9.168 15.848 9.168 17.544V20.04H19.776V10.536C19.776 10.216 19.872 9.96 20.064 9.768C20.256 9.576 20.512 9.48 20.832 9.48H21.648C21.968 9.48 22.224 9.576 22.416 9.768C22.608 9.96 22.704 10.216 22.704 10.536V43.944C22.704 44.264 22.608 44.52 22.416 44.712C22.224 44.904 21.968 45 21.648 45H20.832C20.512 45 20.256 44.904 20.064 44.712C19.872 44.52 19.776 44.264 19.776 43.944V22.824H9.168V43.944C9.168 44.264 9.072 44.52 8.88 44.712C8.688 44.904 8.432 45 8.112 45H7.296ZM39.873 45.48C37.697 45.48 35.889 45.016 34.449 44.088C33.041 43.128 31.985 41.832 31.281 40.2C30.609 38.568 30.273 36.744 30.273 34.728V21.096C30.273 20.776 30.369 20.52 30.561 20.328C30.753 20.136 31.009 20.04 31.329 20.04H32.145C32.465 20.04 32.721 20.136 32.913 20.328C33.105 20.52 33.201 20.776 33.201 21.096V34.488C33.201 39.96 35.585 42.696 40.353 42.696C42.625 42.696 44.449 41.976 45.825 40.536C47.201 39.064 47.889 37.048 47.889 34.488V21.096C47.889 20.776 47.985 20.52 48.177 20.328C48.369 20.136 48.625 20.04 48.945 20.04H49.761C50.081 20.04 50.337 20.136 50.529 20.328C50.721 20.52 50.817 20.776 50.817 21.096V43.944C50.817 44.264 50.721 44.52 50.529 44.712C50.337 44.904 50.081 45 49.761 45H48.945C48.625 45 48.369 44.904 48.177 44.712C47.985 44.52 47.889 44.264 47.889 43.944V41.688C47.025 42.808 45.985 43.72 44.769 44.424C43.585 45.128 41.953 45.48 39.873 45.48ZM61.9991 45C61.6791 45 61.4231 44.904 61.2311 44.712C61.0391 44.52 60.9431 44.264 60.9431 43.944V22.824H56.6711C56.3511 22.824 56.0951 22.728 55.9031 22.536C55.7111 22.344 55.6151 22.088 55.6151 21.768V21.096C55.6151 20.776 55.7111 20.52 55.9031 20.328C56.0951 20.136 56.3511 20.04 56.6711 20.04H60.9431V17.304C60.9431 15.864 61.1351 14.552 61.5191 13.368C61.9351 12.184 62.6551 11.24 63.6791 10.536C64.7351 9.832 66.2391 9.48 68.1911 9.48H70.6871C71.0071 9.48 71.2631 9.576 71.4551 9.768C71.6471 9.96 71.7431 10.216 71.7431 10.536V11.208C71.7431 11.528 71.6471 11.784 71.4551 11.976C71.2631 12.168 71.0071 12.264 70.6871 12.264H68.1911C66.4951 12.264 65.3431 12.728 64.7351 13.656C64.1591 14.552 63.8711 15.848 63.8711 17.544V20.04H74.4791V17.304C74.4791 15.864 74.6711 14.552 75.0551 13.368C75.4711 12.184 76.1911 11.24 77.2151 10.536C78.2711 9.832 79.7751 9.48 81.7271 9.48H84.2231C84.5431 9.48 84.7991 9.576 84.9911 9.768C85.1831 9.96 85.2791 10.216 85.2791 10.536V11.208C85.2791 11.528 85.1831 11.784 84.9911 11.976C84.7991 12.168 84.5431 12.264 84.2231 12.264H81.7271C80.0311 12.264 78.8791 12.728 78.2711 13.656C77.6951 14.552 77.4071 15.848 77.4071 17.544V20.04H83.7431C84.0631 20.04 84.3191 20.136 84.5111 20.328C84.7031 20.52 84.7991 20.776 84.7991 21.096V21.768C84.7991 22.088 84.7031 22.344 84.5111 22.536C84.3191 22.728 84.0631 22.824 83.7431 22.824H77.4071V43.944C77.4071 44.264 77.3111 44.52 77.1191 44.712C76.9271 44.904 76.6711 45 76.3511 45H75.5351C75.2151 45 74.9591 44.904 74.7671 44.712C74.5751 44.52 74.4791 44.264 74.4791 43.944V22.824H63.8711V43.944C63.8711 44.264 63.7751 44.52 63.5831 44.712C63.3911 44.904 63.1351 45 62.8151 45H61.9991Z" fill="#321747"/>
<path d="M97.692 45.48C95.9 45.48 94.364 45.256 93.084 44.808C91.804 44.36 90.764 43.816 89.964 43.176C89.164 42.536 88.556 41.896 88.14 41.256C87.756 40.616 87.548 40.104 87.516 39.72C87.484 39.368 87.596 39.096 87.852 38.904C88.108 38.712 88.364 38.616 88.62 38.616H90.732C90.924 38.616 91.068 38.648 91.164 38.712C91.292 38.744 91.452 38.872 91.644 39.096C92.06 39.544 92.524 39.992 93.036 40.44C93.548 40.888 94.172 41.256 94.908 41.544C95.676 41.832 96.62 41.976 97.74 41.976C99.372 41.976 100.716 41.672 101.772 41.064C102.828 40.424 103.356 39.496 103.356 38.28C103.356 37.48 103.132 36.84 102.684 36.36C102.268 35.88 101.5 35.448 100.38 35.064C99.292 34.68 97.788 34.28 95.868 33.864C93.948 33.416 92.428 32.872 91.308 32.232C90.188 31.56 89.388 30.776 88.908 29.88C88.428 28.952 88.188 27.912 88.188 26.76C88.188 25.576 88.54 24.44 89.244 23.352C89.948 22.232 90.972 21.32 92.316 20.616C93.692 19.912 95.404 19.56 97.452 19.56C99.116 19.56 100.54 19.768 101.724 20.184C102.908 20.6 103.884 21.128 104.652 21.768C105.42 22.376 105.996 22.984 106.38 23.592C106.764 24.2 106.972 24.712 107.004 25.128C107.036 25.448 106.94 25.72 106.716 25.944C106.492 26.136 106.236 26.232 105.948 26.232H103.932C103.708 26.232 103.516 26.184 103.356 26.088C103.228 25.992 103.1 25.88 102.972 25.752C102.652 25.336 102.268 24.92 101.82 24.504C101.404 24.088 100.844 23.752 100.14 23.496C99.468 23.208 98.572 23.064 97.452 23.064C95.852 23.064 94.652 23.4 93.852 24.072C93.052 24.744 92.652 25.592 92.652 26.616C92.652 27.224 92.828 27.768 93.18 28.248C93.532 28.728 94.204 29.16 95.196 29.544C96.188 29.928 97.66 30.344 99.612 30.792C101.724 31.208 103.388 31.768 104.604 32.472C105.82 33.176 106.684 33.992 107.196 34.92C107.708 35.848 107.964 36.92 107.964 38.136C107.964 39.48 107.564 40.712 106.764 41.832C105.996 42.952 104.844 43.848 103.308 44.52C101.804 45.16 99.932 45.48 97.692 45.48ZM114.673 45C114.353 45 114.081 44.904 113.857 44.712C113.665 44.488 113.569 44.216 113.569 43.896V12.024C113.569 11.704 113.665 11.448 113.857 11.256C114.081 11.032 114.353 10.92 114.673 10.92H117.073C117.425 10.92 117.697 11.032 117.889 11.256C118.081 11.448 118.177 11.704 118.177 12.024V23.208C119.041 22.12 120.097 21.24 121.345 20.568C122.593 19.896 124.177 19.56 126.097 19.56C128.177 19.56 129.937 20.024 131.377 20.952C132.849 21.848 133.953 23.112 134.689 24.744C135.457 26.344 135.841 28.216 135.841 30.36V43.896C135.841 44.216 135.745 44.488 135.553 44.712C135.361 44.904 135.089 45 134.737 45H132.337C132.017 45 131.745 44.904 131.521 44.712C131.329 44.488 131.233 44.216 131.233 43.896V30.6C131.233 28.36 130.689 26.616 129.601 25.368C128.513 24.088 126.913 23.448 124.801 23.448C122.817 23.448 121.217 24.088 120.001 25.368C118.785 26.616 118.177 28.36 118.177 30.6V43.896C118.177 44.216 118.081 44.488 117.889 44.712C117.697 44.904 117.425 45 117.073 45H114.673ZM152.995 45.48C150.563 45.48 148.531 45.016 146.899 44.088C145.267 43.16 144.019 41.88 143.155 40.248C142.291 38.584 141.811 36.696 141.715 34.584C141.683 34.04 141.667 33.352 141.667 32.52C141.667 31.656 141.683 30.968 141.715 30.456C141.811 28.312 142.291 26.424 143.155 24.792C144.051 23.16 145.315 21.88 146.947 20.952C148.579 20.024 150.595 19.56 152.995 19.56C155.395 19.56 157.411 20.024 159.043 20.952C160.675 21.88 161.923 23.16 162.787 24.792C163.683 26.424 164.179 28.312 164.275 30.456C164.307 30.968 164.323 31.656 164.323 32.52C164.323 33.352 164.307 34.04 164.275 34.584C164.179 36.696 163.699 38.584 162.835 40.248C161.971 41.88 160.723 43.16 159.091 44.088C157.459 45.016 155.427 45.48 152.995 45.48ZM152.995 41.784C154.979 41.784 156.563 41.16 157.747 39.912C158.931 38.632 159.571 36.776 159.667 34.344C159.699 33.864 159.715 33.256 159.715 32.52C159.715 31.784 159.699 31.176 159.667 30.696C159.571 28.264 158.931 26.424 157.747 25.176C156.563 23.896 154.979 23.256 152.995 23.256C151.011 23.256 149.411 23.896 148.195 25.176C147.011 26.424 146.387 28.264 146.323 30.696C146.291 31.176 146.275 31.784 146.275 32.52C146.275 33.256 146.291 33.864 146.323 34.344C146.387 36.776 147.011 38.632 148.195 39.912C149.411 41.16 151.011 41.784 152.995 41.784ZM171.485 54.12C171.165 54.12 170.893 54.008 170.669 53.784C170.477 53.592 170.381 53.336 170.381 53.016V21.144C170.381 20.824 170.477 20.568 170.669 20.376C170.893 20.152 171.165 20.04 171.485 20.04H173.693C174.013 20.04 174.269 20.152 174.461 20.376C174.685 20.568 174.797 20.824 174.797 21.144V23.256C175.565 22.2 176.589 21.32 177.869 20.616C179.149 19.912 180.749 19.56 182.669 19.56C184.461 19.56 185.981 19.864 187.229 20.472C188.509 21.08 189.549 21.912 190.349 22.968C191.181 24.024 191.805 25.224 192.221 26.568C192.637 27.912 192.861 29.352 192.893 30.888C192.925 31.4 192.941 31.944 192.941 32.52C192.941 33.096 192.925 33.64 192.893 34.152C192.861 35.656 192.637 37.096 192.221 38.472C191.805 39.816 191.181 41.016 190.349 42.072C189.549 43.096 188.509 43.928 187.229 44.568C185.981 45.176 184.461 45.48 182.669 45.48C180.813 45.48 179.245 45.144 177.965 44.472C176.717 43.768 175.693 42.904 174.893 41.88V53.016C174.893 53.336 174.797 53.592 174.605 53.784C174.413 54.008 174.141 54.12 173.789 54.12H171.485ZM181.661 41.592C183.325 41.592 184.621 41.24 185.549 40.536C186.509 39.8 187.197 38.856 187.613 37.704C188.029 36.52 188.269 35.256 188.333 33.912C188.365 32.984 188.365 32.056 188.333 31.128C188.269 29.784 188.029 28.536 187.613 27.384C187.197 26.2 186.509 25.256 185.549 24.552C184.621 23.816 183.325 23.448 181.661 23.448C180.093 23.448 178.813 23.816 177.821 24.552C176.861 25.288 176.141 26.232 175.661 27.384C175.213 28.504 174.957 29.656 174.893 30.84C174.861 31.352 174.845 31.96 174.845 32.664C174.845 33.368 174.861 33.992 174.893 34.536C174.925 35.656 175.181 36.76 175.661 37.848C176.173 38.936 176.925 39.832 177.917 40.536C178.909 41.24 180.157 41.592 181.661 41.592Z" fill="#FF8484"/>
</svg>
