<svg width="500" height="500" viewBox="0 0 500 500" fill="none" xmlns="http://www.w3.org/2000/svg">
<path d="M97 392.35C181 435.3 317.18 435.3 401.18 392.35C485.18 349.4 485.18 279.78 401.18 236.83C317.18 193.88 180.99 193.83 97 236.83C13.01 279.83 13 349.41 97 392.35Z" fill="#F5F5F5"/>
<path d="M406.27 372.78C384.5 384.62 349.2 384.62 327.43 372.78C305.66 360.94 305.66 341.78 327.43 329.93C349.2 318.08 384.5 318.1 406.27 329.93C428.04 341.76 428 361 406.27 372.78Z" fill="#E6E6E6"/>
<path d="M196.24 344.17C258.748 344.17 309.42 316.627 309.42 282.65C309.42 248.673 258.748 221.13 196.24 221.13C133.732 221.13 83.0601 248.673 83.0601 282.65C83.0601 316.627 133.732 344.17 196.24 344.17Z" fill="#E6E6E6"/>
<path d="M376.94 252.38L366.61 246.48C366.61 246.48 361.61 219.16 365.36 195.67C370.57 162.67 393.05 151.27 401.22 154.55C409.39 157.83 411.3 167.61 396.55 186.69C387.85 198 376.66 221.74 376.94 252.38Z" fill="#797979"/>
<g opacity="0.1">
<path opacity="0.1" d="M376.94 252.38L366.61 246.48C366.61 246.48 361.61 219.16 365.36 195.67C370.57 162.67 393.05 151.27 401.22 154.55C409.39 157.83 411.3 167.61 396.55 186.69C387.85 198 376.66 221.74 376.94 252.38Z" fill="black"/>
</g>
<path d="M373.2 239.27H373.3C373.492 239.24 373.665 239.137 373.783 238.982C373.9 238.827 373.953 238.633 373.93 238.44C369.66 207.53 382.09 173.66 396.05 160.01C396.175 159.874 396.244 159.695 396.244 159.51C396.244 159.325 396.175 159.146 396.05 159.01C395.909 158.875 395.721 158.8 395.525 158.8C395.329 158.8 395.141 158.875 395 159.01C380.78 172.91 368.11 207.33 372.45 238.69C372.487 238.859 372.583 239.01 372.72 239.116C372.857 239.222 373.027 239.276 373.2 239.27V239.27Z" fill="white"/>
<path d="M405.62 269C407.25 269.94 410.62 267.89 411.91 267C414.125 265.48 415.91 263.413 417.09 261C418.419 258.281 418.874 255.217 418.39 252.23C418.13 250.649 417.759 249.089 417.28 247.56C416.85 246.05 416.41 244.56 415.98 243.04C415.452 241.577 415.224 240.023 415.31 238.47C415.71 235.37 418.46 233.2 420.96 231.33C423.72 229.26 426.6 226.53 426.58 222.8C426.58 219.93 425.08 217.26 423.3 215C421.52 212.74 419.4 210.75 417.79 208.36C416.524 206.7 415.861 204.658 415.91 202.57C416.083 201.29 416.515 200.058 417.18 198.95C418.49 196.53 420.23 194.3 421.18 191.69C422.13 189.08 421.96 185.84 419.92 183.98C418.25 182.45 415.77 182.23 413.51 182.38C411.381 182.634 409.333 183.35 407.51 184.48C401.59 187.77 398.21 194.78 391.93 197.31C389.51 198.31 386.86 198.5 384.33 199.17C381.8 199.84 379.23 201.17 378.06 203.46C375.76 208.07 380.06 213.74 378.42 218.63C376.98 222.96 372.78 224.63 370.42 228.51C369.461 230.232 369.072 232.213 369.31 234.17C369.522 237.478 370.332 240.721 371.7 243.74C373.233 246.74 374.988 249.621 376.95 252.36C377 252.48 405.37 268.8 405.62 269Z" fill="#797979"/>
<path d="M388.84 260C389.037 259.992 389.223 259.907 389.358 259.763C389.493 259.619 389.565 259.427 389.56 259.23C388.34 229.97 402.13 197.67 412.15 188.29C412.277 188.155 412.348 187.976 412.348 187.79C412.348 187.604 412.277 187.425 412.15 187.29C412.014 187.165 411.835 187.096 411.65 187.096C411.465 187.096 411.286 187.165 411.15 187.29C400.93 196.87 386.86 229.7 388.09 259.37C388.119 259.547 388.21 259.709 388.348 259.824C388.486 259.94 388.66 260.002 388.84 260Z" fill="white"/>
<path d="M393.23 225.44C393.3 225.45 393.37 225.45 393.44 225.44C402.84 222.53 414.56 222.02 414.67 222.02C414.767 222.016 414.863 221.993 414.951 221.952C415.039 221.912 415.119 221.854 415.185 221.782C415.251 221.711 415.302 221.627 415.335 221.536C415.369 221.444 415.384 221.347 415.38 221.25C415.379 221.152 415.358 221.055 415.318 220.966C415.278 220.876 415.22 220.795 415.148 220.729C415.076 220.662 414.991 220.611 414.899 220.579C414.806 220.546 414.708 220.533 414.61 220.54C414.49 220.54 402.61 221.07 393.01 224.03C392.846 224.086 392.706 224.198 392.616 224.347C392.526 224.495 392.492 224.67 392.518 224.842C392.544 225.014 392.63 225.171 392.76 225.285C392.89 225.4 393.056 225.465 393.23 225.47V225.44Z" fill="white"/>
<path d="M415.16 339.75L409.5 316.88H381.07C371.659 315.26 362.041 315.26 352.63 316.88H324.19L318.53 339.75C316.37 348.26 320.97 357.23 332.31 363.75C351.38 374.75 382.31 374.75 401.37 363.75C412.72 357.23 417.31 348.26 415.16 339.75Z" fill="#797979"/>
<path opacity="0.1" d="M415.16 339.75L409.5 316.88H381.07C371.659 315.26 362.041 315.26 352.63 316.88H324.19L318.53 339.75C316.37 348.26 320.97 357.23 332.31 363.75C351.38 374.75 382.31 374.75 401.37 363.75C412.72 357.23 417.31 348.26 415.16 339.75Z" fill="black"/>
<path d="M366.85 345.28C390.648 345.28 409.94 334.141 409.94 320.4C409.94 306.659 390.648 295.52 366.85 295.52C343.052 295.52 323.76 306.659 323.76 320.4C323.76 334.141 343.052 345.28 366.85 345.28Z" fill="#797979"/>
<path opacity="0.2" d="M344.51 333.3C356.85 340.42 376.85 340.42 389.19 333.3C401.53 326.18 401.53 314.62 389.19 307.5C376.85 300.38 356.85 300.37 344.51 307.5C332.17 314.63 332.17 326.17 344.51 333.3Z" fill="black"/>
<path d="M392 317.75C391.78 317.75 391.56 317.75 391.35 317.75C391.402 317.473 391.429 317.192 391.43 316.91C391.432 315.976 391.128 315.068 390.563 314.324C389.998 313.58 389.205 313.043 388.305 312.794C387.405 312.545 386.449 312.599 385.582 312.947C384.716 313.295 383.988 313.918 383.51 314.72C383.209 313.463 382.591 312.304 381.715 311.354C380.838 310.403 379.733 309.694 378.504 309.293C377.275 308.891 375.964 308.812 374.696 309.062C373.428 309.312 372.245 309.883 371.26 310.72C371.096 309.658 370.536 308.696 369.693 308.03C368.85 307.363 367.786 307.039 366.714 307.124C365.642 307.209 364.642 307.695 363.915 308.487C363.187 309.278 362.785 310.315 362.79 311.39C362.791 311.672 362.818 311.953 362.87 312.23C362.076 311.952 361.241 311.81 360.4 311.81C359.219 311.808 358.054 312.084 357 312.616C355.946 313.148 355.031 313.92 354.33 314.87C353.878 314.042 353.165 313.387 352.301 313.008C351.437 312.629 350.472 312.548 349.557 312.776C348.641 313.005 347.828 313.531 347.244 314.272C346.66 315.013 346.339 315.927 346.33 316.87C346.33 317.03 346.33 317.19 346.33 317.34C345.176 316.73 343.884 316.429 342.579 316.466C341.274 316.502 340.001 316.875 338.882 317.547C337.764 318.22 336.838 319.171 336.195 320.306C335.551 321.442 335.212 322.725 335.21 324.03C335.21 328.21 338.09 331.26 342.44 333.34C349.805 338.325 358.477 341.028 367.37 341.11C379.24 341.11 388.51 335.93 392.6 333.53C397.6 330.96 399.54 329.44 399.54 325.25C399.522 323.26 398.72 321.357 397.309 319.953C395.898 318.549 393.99 317.758 392 317.75V317.75Z" fill="#B16668"/>
<path d="M347.24 329.86C346.516 329.121 346.091 328.141 346.047 327.107C346.002 326.074 346.342 325.061 346.999 324.263C347.657 323.464 348.587 322.938 349.61 322.784C350.633 322.63 351.676 322.86 352.54 323.43C353.048 323.764 353.477 324.206 353.795 324.725C354.113 325.243 354.312 325.825 354.38 326.43C354.084 325.948 353.684 325.538 353.21 325.23C352.514 324.768 351.692 324.535 350.857 324.564C350.023 324.594 349.218 324.883 348.557 325.393C347.895 325.902 347.409 326.606 347.168 327.405C346.926 328.205 346.941 329.059 347.21 329.85L347.24 329.86Z" fill="#9A4A4D"/>
<path d="M366 330.39C366.11 329.355 366.601 328.398 367.378 327.705C368.154 327.013 369.161 326.634 370.202 326.643C371.242 326.651 372.243 327.047 373.008 327.753C373.773 328.458 374.248 329.423 374.34 330.46C374.398 331.067 374.322 331.679 374.116 332.253C373.91 332.827 373.581 333.348 373.15 333.78C373.429 332.863 373.369 331.875 372.981 330.999C372.593 330.122 371.903 329.413 371.037 329.002C370.17 328.592 369.185 328.506 368.26 328.76C367.336 329.015 366.534 329.593 366 330.39Z" fill="#9A4A4D"/>
<path d="M351.83 324.45C351.427 324.042 351.128 323.543 350.957 322.996C350.786 322.448 350.749 321.868 350.847 321.303C350.946 320.738 351.178 320.205 351.525 319.748C351.871 319.291 352.322 318.923 352.839 318.676C353.356 318.428 353.925 318.308 354.498 318.324C355.071 318.341 355.632 318.494 356.134 318.771C356.636 319.049 357.065 319.442 357.384 319.918C357.703 320.395 357.904 320.94 357.97 321.51C357.518 320.806 356.825 320.291 356.021 320.062C355.216 319.834 354.356 319.907 353.601 320.268C352.847 320.629 352.251 321.254 351.924 322.024C351.598 322.794 351.565 323.657 351.83 324.45V324.45Z" fill="#9A4A4D"/>
<path d="M373.73 330.83C373.407 329.993 373.408 329.066 373.733 328.23C374.058 327.394 374.684 326.71 375.487 326.311C376.29 325.912 377.213 325.827 378.076 326.073C378.938 326.318 379.678 326.877 380.15 327.64C380.431 328.081 380.611 328.579 380.676 329.097C380.742 329.616 380.692 330.143 380.53 330.64C380.469 330.159 380.302 329.698 380.04 329.29C379.656 328.686 379.092 328.217 378.428 327.95C377.764 327.682 377.033 327.629 376.338 327.798C375.642 327.966 375.016 328.348 374.549 328.89C374.081 329.432 373.795 330.107 373.73 330.82V330.83Z" fill="#9A4A4D"/>
<path d="M365.89 320.75C365.687 320.213 365.616 319.635 365.683 319.065C365.749 318.494 365.951 317.948 366.271 317.472C366.592 316.995 367.021 316.602 367.524 316.326C368.028 316.049 368.59 315.897 369.163 315.882C369.737 315.867 370.307 315.989 370.824 316.239C371.341 316.488 371.791 316.858 372.136 317.317C372.481 317.775 372.711 318.31 372.808 318.876C372.904 319.442 372.864 320.023 372.69 320.57C372.579 319.732 372.162 318.965 371.52 318.417C370.877 317.868 370.054 317.577 369.209 317.599C368.364 317.622 367.558 317.956 366.945 318.538C366.332 319.119 365.956 319.908 365.89 320.75V320.75Z" fill="#9A4A4D"/>
<path d="M371.87 318.32C371.628 317.653 371.64 316.921 371.904 316.262C372.167 315.603 372.664 315.065 373.299 314.748C373.934 314.432 374.663 314.36 375.347 314.547C376.031 314.734 376.623 315.165 377.01 315.76C377.237 316.114 377.382 316.513 377.436 316.93C377.489 317.347 377.45 317.77 377.32 318.17C377.233 317.497 376.899 316.88 376.383 316.439C375.867 315.997 375.206 315.764 374.527 315.782C373.849 315.801 373.201 316.071 372.71 316.54C372.219 317.009 371.92 317.643 371.87 318.32V318.32Z" fill="#9A4A4D"/>
<path d="M149.5 156.74C137.84 142.74 114.62 142.86 107.81 134.29C98.37 122.4 109.96 108.06 108.93 103.8C107.9 99.54 97.33 107.08 94.93 121.47C93.09 132.47 97.39 141.61 108.71 148.32C117.71 153.63 137.71 159.16 141.06 167.77L149.5 156.74Z" fill="#263238"/>
<path d="M262.38 212.63C266.04 230.17 260.38 240.63 257.25 259.57C256.48 264.21 254.92 283.57 255.43 294.1C263.84 301.18 272.31 306.31 268.6 310.33C266.11 313.04 258.98 313.63 248.13 308.22C244.75 306.54 242.07 304.58 241.2 302.73C240.03 300.25 238.28 293.46 237.6 288C234.24 260.87 234.14 247.15 234.14 247.15L262.38 212.63Z" fill="#37474F"/>
<path d="M263.55 309.52C262.426 307.58 260.656 306.097 258.55 305.33C258.23 305.21 257.92 305.5 258.29 305.72C259.961 306.917 261.116 308.704 261.52 310.72C261.83 311.8 261.76 312.92 262.01 313.99C262.26 315.06 263.8 314.75 264.13 313.92C264.292 313.612 264.372 313.268 264.36 312.92C264.394 311.735 264.115 310.562 263.55 309.52V309.52Z" fill="#263238"/>
<path d="M267.52 307C266.319 305.872 264.881 305.028 263.31 304.53C263.06 304.45 262.93 304.69 263.15 304.84C264.419 305.708 265.478 306.85 266.25 308.18C266.73 309.032 267.096 309.943 267.34 310.89C267.58 311.8 267.41 312.3 268.26 312.82C268.51 312.98 269.08 312.96 269.26 312.64C270 310.81 268.9 308.25 267.52 307Z" fill="#263238"/>
<path d="M175.08 161.93C178.75 179.47 173.08 189.93 169.95 208.88C169.18 213.51 166.85 230.64 167.37 241.16C174.37 248.16 185.37 255.47 181.64 259.5C179.14 262.21 171.69 262.94 160.83 257.5C157.46 255.82 154.77 253.86 153.9 252.01C152.74 249.54 152.24 243.09 151.56 237.63C148.21 210.5 146.84 196.44 146.84 196.44L175.08 161.93Z" fill="#37474F"/>
<path d="M175.37 257.24C174.387 255.759 172.963 254.626 171.3 254C171.07 253.91 170.69 254.07 170.97 254.32C173.97 256.96 173.58 261.78 173.5 265.32C173.501 265.481 173.543 265.64 173.624 265.78C173.704 265.92 173.82 266.036 173.959 266.118C174.098 266.2 174.257 266.244 174.418 266.246C174.579 266.248 174.739 266.208 174.88 266.13H175C175.296 266.024 175.559 265.842 175.761 265.601C175.963 265.36 176.097 265.07 176.15 264.76C176.25 262.22 176.67 259.51 175.37 257.24Z" fill="#263238"/>
<path d="M180.2 256.29C179.2 255.07 177.47 253.51 175.85 253.29C175.58 253.29 175.58 253.56 175.77 253.68C176.589 254.131 177.301 254.751 177.86 255.5C178.377 256.652 178.759 257.86 179 259.1C179.4 260.53 178.85 262.83 180.3 263.59C180.467 263.677 180.659 263.702 180.842 263.659C181.026 263.617 181.188 263.511 181.3 263.36C182.44 261.38 181.62 258 180.2 256.29Z" fill="#263238"/>
<path d="M167.37 241.16C165.816 241.09 164.268 241.387 162.851 242.026C161.433 242.665 160.186 243.629 159.21 244.84C159.21 244.84 165.14 242.34 170.52 244.29L170.82 244.38C169.62 243.31 168.45 242.23 167.37 241.16Z" fill="#263238"/>
<path d="M275.4 123C278.65 119.65 281.57 119 286.2 120.46C292.09 122.32 301.81 129.07 303.71 132.95C306.5 138.69 292.95 162.73 285.33 156.79C277.71 150.85 275.4 123 275.4 123Z" fill="#263238"/>
<path d="M305.52 164.86C302.71 158.55 302.18 145.27 297.97 136.15C293.76 127.03 280.75 121.26 267.42 123.37C247.89 126.47 242.57 141.67 237.52 157.24C232.21 173.6 214.3 168.6 200.4 160.8C188.51 154.12 175.16 144.49 153.4 150.24C145.34 152.38 136.68 158.98 129.65 169.49C124.3 177.49 114.06 215.37 113.41 230.8C113.02 240.07 113.41 243.72 113.41 252.35C113.41 257.86 113.41 266.35 114.54 268.87C115.41 270.71 118.1 272.67 121.47 274.35C132.32 279.77 139.78 279.04 142.27 276.35C145.98 272.35 137.15 266.95 130.1 260C129.84 254.77 132.15 240 132.15 240C133.35 237.62 138.35 235.13 142.23 230.32C146.362 225.219 149.97 219.714 153 213.89C170 222.17 171.41 228.82 179.85 239C187.65 248.41 192.52 250.44 199.25 253.28C199.25 253.28 201.59 278.28 204.95 305.36C205.62 310.83 206.12 317.27 207.28 319.75C208.15 321.6 211.09 323.18 214.35 325.06C225.5 331.5 231.49 328.96 234.66 327.06C239.46 324.2 235.05 319.98 220.75 308.87C220.23 298.34 223.43 280.79 224.21 276.15C225.4 269.02 228.36 257.94 228.36 257.94C236.82 257.7 249.82 251.6 259.98 238.07C268.34 227.02 268.98 213.57 272.48 196.07C272.77 194.61 273.06 193.07 273.48 191.57C273.48 191.57 287.48 194.95 295.48 194.31C296.07 194.25 296.65 194.19 297.23 194.08C297.767 194.017 298.297 193.9 298.81 193.73C301.03 193.26 303.65 191.21 305.29 190.15C306.604 189.312 307.801 188.303 308.85 187.15C309.161 186.857 309.455 186.546 309.73 186.22C309.783 186.19 309.826 186.146 309.856 186.093C309.886 186.04 309.901 185.981 309.9 185.92C309.96 185.92 309.96 185.92 310.02 185.86C311.283 184.318 312.327 182.609 313.12 180.78C315.23 175.92 308.32 171.18 305.52 164.86Z" fill="#455A64"/>
<path d="M230 324.75C229 323.35 226.62 321.65 224.77 322.01C224.56 322.01 224.77 322.3 224.89 322.33C227.8 323.48 229.58 327.13 229.13 330.13C228.93 331.39 230.86 330.49 231.13 330.03C232.14 328.56 230.89 326 230 324.75Z" fill="#37474F"/>
<path d="M230.35 321.15C229.81 321.15 230.17 321.72 230.52 321.77C230.87 321.82 231.33 322.42 231.52 322.64C232.183 323.221 232.759 323.895 233.23 324.64C234.031 326.177 234.7 327.78 235.23 329.43C235.67 330.51 237.65 329.43 237.45 328.43C236.89 325.17 234 321.06 230.35 321.15Z" fill="#37474F"/>
<path d="M131.21 270.72C131.04 270.66 130.8 270.78 130.93 270.98C131.79 272.27 132.71 273.43 133.48 274.81C134.28 276.295 134.796 277.916 135 279.59C135.038 279.725 135.111 279.847 135.211 279.945C135.311 280.043 135.435 280.114 135.57 280.15L136.12 280.29C136.302 280.328 136.492 280.307 136.661 280.23C136.83 280.152 136.97 280.023 137.06 279.86C138.75 275.91 134.7 271.84 131.21 270.72Z" fill="#37474F"/>
<path d="M141.39 273.34C140.332 271.673 138.704 270.447 136.81 269.89C136.56 269.84 136.06 269.98 136.35 270.32C137.575 271.682 138.611 273.202 139.43 274.84C139.85 275.72 140.29 276.64 140.64 277.55C140.99 278.46 140.97 279.5 141.99 279.93C142.194 280.012 142.42 280.018 142.628 279.947C142.836 279.875 143.01 279.73 143.12 279.54C144.14 277.59 142.45 275 141.39 273.34Z" fill="#37474F"/>
<path d="M272.65 195.41L256.65 196.1L239.48 190.78L226.53 177.34C226.53 184.84 232.28 199.78 247 204.34C261.72 208.9 271 204.34 271 204.34C271.47 201.69 272 198.96 272.54 196.1C272.55 195.88 272.6 195.64 272.65 195.41Z" fill="#37474F"/>
<path d="M295.3 165.82C290.56 167.33 290.77 172.43 287.52 176.14C284.27 179.85 269.52 187.19 262.59 182.66C253.8 176.94 244.12 178.79 247.66 189.16C251.2 199.53 268.8 197.4 273.5 191.6C273.5 191.6 287.5 194.98 295.5 194.34C296.09 194.28 296.67 194.22 297.25 194.11C297.787 194.047 298.316 193.93 298.83 193.76C301.05 193.29 303.67 191.24 305.31 190.18C306.624 189.342 307.821 188.333 308.87 187.18C309.181 186.887 309.474 186.576 309.75 186.25C309.802 186.22 309.846 186.176 309.876 186.123C309.906 186.07 309.921 186.011 309.92 185.95C309.98 185.95 309.98 185.95 310.04 185.89C311.303 184.348 312.347 182.639 313.14 180.81C314.78 177 310.98 173.28 307.89 168.81C304.6 165.22 304.08 163 295.3 165.82Z" fill="#F0F0F0"/>
<path d="M273.5 191.6C259.72 189.9 255.62 183.67 255.62 183.67C255.62 183.67 249.48 189.67 256.03 194.52C262.58 199.37 273.5 191.6 273.5 191.6Z" fill="#E0E0E0"/>
<path d="M273.5 191.6C264.36 196.44 250.85 192.81 242.99 186.04C236.57 180.5 233.68 171.74 235.73 161.25C235.73 161.25 228.14 162.47 226.38 167.76C225.03 173.42 226.29 183.87 234.73 191.81C242.21 198.81 260.73 207.29 271.91 199.45C271.91 199.45 275.35 196.83 273.5 191.6Z" fill="#797979"/>
<path d="M266.32 126.41C263.32 119.29 246.05 120.73 234.14 131.95C228.27 137.47 230.19 143.23 230.52 149.02C231 157.44 236 167 243 167.5C250 168 254.13 155.79 255.39 149.27C257.21 140.05 262.32 128.66 266.32 126.41Z" fill="#263238"/>
<path d="M307.67 187.57C305.11 188 300.32 184.8 298.95 182.19C298.643 181.57 298.464 180.895 298.422 180.204C298.38 179.513 298.478 178.821 298.708 178.169C298.938 177.516 299.297 176.917 299.762 176.405C300.228 175.893 300.792 175.48 301.42 175.19C303.88 174.24 308.62 173.43 310.84 174.19C313.06 174.95 314.5 178.32 314.16 179.87C313.51 182.84 311.18 187 307.67 187.57Z" fill="#263238"/>
<path d="M274.07 158.83C274.07 158.217 274.252 157.618 274.592 157.108C274.933 156.598 275.417 156.201 275.984 155.966C276.55 155.731 277.174 155.67 277.775 155.79C278.376 155.909 278.929 156.204 279.362 156.638C279.796 157.071 280.091 157.624 280.211 158.225C280.33 158.827 280.269 159.45 280.034 160.016C279.799 160.583 279.402 161.067 278.892 161.408C278.383 161.748 277.783 161.93 277.17 161.93C276.348 161.93 275.559 161.603 274.978 161.022C274.397 160.441 274.07 159.652 274.07 158.83V158.83Z" fill="#FAFAFA"/>
<path d="M274 158.33C274 157.816 274.152 157.313 274.438 156.885C274.724 156.458 275.13 156.125 275.605 155.928C276.08 155.731 276.603 155.68 277.107 155.78C277.612 155.88 278.075 156.128 278.438 156.492C278.802 156.855 279.05 157.318 279.15 157.823C279.25 158.327 279.199 158.85 279.002 159.325C278.805 159.8 278.472 160.206 278.044 160.492C277.617 160.777 277.114 160.93 276.6 160.93C275.91 160.93 275.249 160.656 274.762 160.168C274.274 159.681 274 159.02 274 158.33V158.33Z" fill="#263238"/>
<path d="M245.08 233.32C239.3 236.62 231.86 244.32 228.39 257.95C236.85 257.71 249.85 251.61 260.01 238.08C262.324 234.981 264.183 231.566 265.53 227.94C257.07 236.37 250.86 230 245.08 233.32Z" fill="#F0F0F0"/>
<path d="M228.39 258C235.9 257.79 246.97 253 256.47 242.41C255.95 242.82 246.33 251.17 240.92 251.34C235.31 251.51 234.14 247.21 234.92 243.07C231.878 247.621 229.667 252.676 228.39 258V258Z" fill="#E0E0E0"/>
<path d="M130.14 260C130.14 260 127 258.34 120.52 263.65C120.52 263.65 128.38 260.89 133.37 263.01C132.29 262 131.19 261 130.14 260Z" fill="#37474F"/>
<path d="M224.68 311.94C223.473 310.98 222.173 309.96 220.78 308.88C219.286 308.706 217.775 308.996 216.453 309.712C215.13 310.428 214.061 311.534 213.39 312.88C213.39 312.88 219.24 309.72 224.68 311.94Z" fill="#37474F"/>
<path d="M271.59 155.18C272.73 156.1 274.59 153.12 279.07 152.75C282.25 152.48 281.54 147.86 277.17 148.41C272.8 148.96 269.9 153.81 271.59 155.18Z" fill="#E0E0E0"/>
<path d="M248 297C248 297 254.65 295.38 259.43 297.38C258.15 296.38 256.81 295.27 255.43 294.15C255.43 294.1 251.79 293.36 248 297Z" fill="#263238"/>
<path d="M301 145.29C299.35 144.16 297.76 144.29 295.85 145.35C295.495 145.64 295.249 146.043 295.155 146.491C295.062 146.94 295.125 147.408 295.335 147.815C295.544 148.223 295.888 148.547 296.308 148.731C296.727 148.916 297.198 148.951 297.64 148.83C299.54 148.27 301.28 148.36 301.76 148.76C301.934 148.164 301.955 147.534 301.822 146.928C301.69 146.322 301.407 145.759 301 145.29V145.29Z" fill="#E0E0E0"/>
<path d="M297.15 153.6C297.15 153.007 297.326 152.427 297.656 151.933C297.985 151.44 298.454 151.055 299.002 150.828C299.55 150.601 300.153 150.542 300.735 150.658C301.317 150.773 301.852 151.059 302.271 151.479C302.691 151.898 302.977 152.433 303.092 153.015C303.208 153.597 303.149 154.2 302.922 154.748C302.695 155.296 302.31 155.765 301.817 156.094C301.323 156.424 300.743 156.6 300.15 156.6C299.354 156.6 298.591 156.284 298.029 155.721C297.466 155.159 297.15 154.396 297.15 153.6Z" fill="#FAFAFA"/>
<path d="M297.12 153.12C297.12 152.63 297.265 152.15 297.538 151.742C297.81 151.334 298.198 151.017 298.651 150.829C299.104 150.641 299.603 150.592 300.084 150.688C300.565 150.783 301.007 151.02 301.354 151.366C301.7 151.713 301.937 152.155 302.032 152.636C302.128 153.117 302.079 153.616 301.891 154.069C301.704 154.522 301.386 154.91 300.978 155.182C300.57 155.455 300.091 155.6 299.6 155.6C299.274 155.6 298.952 155.536 298.651 155.411C298.35 155.287 298.077 155.104 297.846 154.874C297.616 154.643 297.433 154.37 297.309 154.069C297.184 153.768 297.12 153.446 297.12 153.12V153.12Z" fill="#263238"/>
</svg>
