<svg version="1.2" xmlns="http://www.w3.org/2000/svg" viewBox="0 0 512 512" width="512" height="512">
	<title>love</title>
	<style>
		.s0 { opacity: 1;fill: #000000 } 
	</style>
	<g id="Background">
		<path id="Path 0" class="s0" d="m158 21.6c10.1 0.2 19 1 25.5 2.4 5.5 1.1 14.3 3.4 19.5 5.1 5.2 1.7 14 5.4 19.5 8.1 5.5 2.8 12.7 6.9 16 9.1 3.3 2.2 8.6 6 17.5 12.7l10.3-7.6c5.6-4.1 15.4-10.2 21.7-13.4 6.3-3.2 15.8-7.2 21-8.9 5.2-1.7 12.6-3.8 16.5-4.6 3.9-0.8 11.3-1.9 16.5-2.6 5.5-0.7 14.8-0.9 22-0.6 6.9 0.3 17.4 1.6 23.5 2.7 6.1 1.2 15.5 3.8 21 5.7 5.5 1.9 13.8 5.4 18.5 7.8 4.7 2.3 12.8 7.1 18 10.6 6.2 4.1 13.7 10.4 21.5 18.3 6.9 6.9 14.6 16 18.1 21.1 3.4 5 8.2 13 10.7 18 2.5 5 6.1 13.7 8.1 19.5 2 5.8 4.7 15.4 5.9 21.5 1.8 9.1 2.2 14.2 2.1 29.5-0.1 15.1-0.5 20.4-2.3 29-1.2 5.8-3.6 14.6-5.3 19.5-1.6 4.9-5 13.1-7.4 18-2.4 4.9-7 13.1-10.3 18-3.2 4.9-10.4 13.9-15.9 20-5.5 6.1-54.7 55.6-109.3 110.2-74.6 74.5-100.1 99.4-102.4 99.9-1.6 0.3-4.1 0.3-5.5-0.1-1.4-0.4-21.8-19.9-47.8-45.8-25-24.9-46-46.4-46.8-48-0.8-1.5-1.4-4.1-1.4-5.7 0-2 1-4 2.9-6 2.4-2.4 3.8-3 11.6-3l84.5 84.5 100.6-100.5c55.3-55.3 103.4-104.1 106.8-108.5 3.5-4.4 8.4-11.6 10.9-16 2.5-4.4 6-11.4 7.6-15.5 1.6-4.1 4.1-11.8 5.5-17 1.4-5.2 3.1-14 3.7-19.5 0.7-5.5 0.9-14.7 0.6-20.5-0.3-5.8-1.5-15-2.6-20.5-1.1-5.5-3.2-13.4-4.7-17.5-1.4-4.1-5-12.2-8-18-3-5.8-7.5-13.2-9.9-16.5-2.5-3.3-7.3-9.2-10.8-13-3.5-3.9-10.8-10.4-16.3-14.5-5.4-4.2-14.4-9.9-19.9-12.7-5.5-2.8-13.4-6.3-17.5-7.7-4.1-1.5-12-3.7-17.5-4.8-7.9-1.7-13.5-2.2-26.5-2.2-13.3 0-18.5 0.5-27 2.3-5.8 1.2-14.8 3.8-20 5.8-5.2 1.9-12.6 5.2-16.5 7.3-3.9 2.1-10.1 6.1-14 8.8-3.9 2.8-10 7.7-13.7 11.1-5.9 5.3-7.3 6.1-10.8 6.1-3.5 0-4.8-0.8-10.7-6.1-3.8-3.4-9.9-8.4-13.8-11.1-3.8-2.7-10.1-6.7-14-8.8-3.8-2.1-11.3-5.4-16.5-7.3-5.2-2-14.2-4.6-20-5.8-8.5-1.8-13.7-2.3-27-2.3-13 0-18.6 0.5-26.5 2.2-5.5 1.1-13.4 3.3-17.5 4.8-4.1 1.4-11.1 4.5-15.5 6.7-4.4 2.2-10.9 5.9-14.5 8.2-3.6 2.3-10 7.2-14.2 10.9-4.3 3.6-10.3 9.6-13.4 13.3-3.1 3.8-7.3 9.3-9.4 12.3-2.1 3-5.8 9.5-8.3 14.5-2.4 4.9-5.6 12.1-7 16-1.4 3.8-3.5 11.5-4.6 17-1.2 5.5-2.5 14.9-2.8 21-0.3 6.1-0.1 15.4 0.6 21 0.6 5.5 2.3 14.3 3.7 19.5 1.4 5.2 3.9 12.9 5.5 17 1.6 4.1 5.1 11.1 7.6 15.5 2.5 4.4 6.6 10.7 9.1 14 2.5 3.3 18.4 19.9 35.3 37 30.7 30.9 30.9 31 30.9 35.2 0 3.4-0.6 4.9-2.9 7.3-2 2.1-3.9 3-6 3-1.7 0-4.3-0.6-5.8-1.4-1.6-0.8-15.4-14.2-30.9-29.8-15.4-15.5-30.9-31.9-34.3-36.3-3.5-4.4-8.8-12.1-11.7-17-2.9-5-7.2-13.5-9.5-19-2.3-5.5-5.4-15-6.9-21-1.6-6.1-3.3-15.4-3.9-20.8-0.6-5.3-1.1-13.5-1.1-18.2 0-4.7 0.7-13.6 1.5-19.8 0.8-6.1 2.8-15.7 4.4-21.2 1.5-5.5 3.8-12.3 4.9-15 1.1-2.8 3.9-8.8 6.2-13.5 2.3-4.7 7-12.6 10.4-17.5 3.5-5.2 11.1-14.1 18.1-21 7.7-7.8 15.4-14.4 21.5-18.4 5.2-3.5 13.3-8.3 18-10.6 4.7-2.4 13.2-5.9 19-7.9 5.8-2 15.2-4.5 21-5.6 5.8-1.1 12.1-2.1 14-2.4 1.9-0.2 10.5-0.2 19 0z"/>
		<path id="Path 1" class="s0" d="m134.2 350c1.5 0 4 0.6 5.6 1.4 1.5 0.7 3.3 2.5 4 4 0.6 1.4 1.2 3.7 1.2 5.1 0 1.4-1.1 3.9-2.5 5.5-1.4 1.7-3.9 3.3-5.7 3.6-2.3 0.5-4.3 0.1-6.5-1.2-1.8-1.1-3.8-3-4.4-4.4-0.6-1.4-0.8-4.2-0.5-6.2 0.4-2.5 1.5-4.5 3.3-5.8 1.4-1.1 3.9-2 5.5-2z"/>
		<path id="Path 2" fill-rule="evenodd" class="s0" d="m255.5 202.1c3.9-0.1 9.7 0.6 13 1.5 3.3 0.8 8.5 2.8 11.5 4.5 4.1 2.1 12.7 10.1 33.6 31.1 26.2 26.3 28.4 28.8 31.7 35.8 1.9 4.1 4.1 10 4.8 13 0.7 3 1.3 9.6 1.3 14.5-0.1 5.4-0.8 11.4-1.8 15-1 3.3-3.3 8.9-5.2 12.5-1.8 3.6-5.5 8.9-8.1 11.9-2.7 2.9-7.9 7.5-11.8 10-3.9 2.6-10.4 5.8-14.5 7.1-6.3 2.1-9.4 2.5-19 2.4-9.3 0-12.8-0.5-18-2.3-3.6-1.2-8.6-3.6-11.3-5.2-2.6-1.6-5.1-2.9-5.7-2.9-0.6 0-3.1 1.3-5.7 2.9-2.7 1.6-7.7 3.9-11.3 5.1-3.6 1.1-9.9 2.3-14 2.7-4.1 0.3-10.4 0.1-14-0.5-3.6-0.7-9.4-2.3-13-3.8-3.6-1.4-9.2-4.5-12.5-6.8-3.3-2.4-7.9-6.5-10.2-9.2-2.4-2.7-5.8-7.8-7.7-11.4-1.9-3.6-4.2-9.2-5.2-12.5-1.1-3.7-1.8-9.4-1.8-15 0-4.9 0.6-11.5 1.3-14.5 0.7-3 2.9-8.9 4.8-13 3.3-7 5.5-9.5 31.7-35.8 20.8-20.9 29.5-29 33.6-31.2 3-1.6 8-3.6 11-4.4 3-0.8 8.7-1.5 12.5-1.5zm-15.5 24.6c-1.9 1.2-14.6 13.4-28.2 27-20 20.1-25.2 25.9-27.2 30.3-1.4 3-3 8.2-3.7 11.5-0.8 4.4-0.8 7.7 0.1 12.5 0.6 3.6 2.4 8.9 3.8 11.9 1.5 2.9 4.5 7.2 6.8 9.5 2.2 2.2 6 5.3 8.5 6.8 2.4 1.5 7.3 3.4 10.9 4.4 4.4 1.1 8.5 1.5 12.5 1.1 3.3-0.3 8.5-1.5 11.5-2.6 3-1.2 8.2-4.3 11.5-6.9 4.6-3.6 6.8-4.7 9.5-4.7 2.7 0 4.9 1.1 9 4.3 3 2.4 7.3 5.2 9.5 6.3 2.2 1 6.9 2.4 10.5 3.1 5 0.9 8 0.9 13 0 3.6-0.6 8.8-2.3 11.5-3.6 2.7-1.4 7.2-4.6 9.9-7.3 2.7-2.6 6.1-7.3 7.6-10.3 1.6-3 3.3-8.4 4-12 0.9-4.8 0.9-8 0.1-12.5-0.7-3.3-2.3-8.5-3.7-11.5-2-4.4-7.4-10.4-27.7-30.8-17.8-18-26.7-26.1-30.2-27.9-3.6-1.9-7-2.7-12-3-4.2-0.2-8.4 0.2-10.5 1-1.9 0.7-5.1 2.2-7 3.4z"/>
		<path id="Path 3" fill-rule="evenodd" class="s0" d="m369 181.1c5.5-0.1 7.5 0.4 12.9 3.1 3.7 1.9 8 5.1 9.8 7.3 1.9 2.2 4.5 6.3 5.8 9 1.3 2.8 2.8 7.9 3.4 11.5 0.7 4.5 0.7 8.5 0 13-0.5 3.6-2 8.8-3.2 11.5-1.3 2.8-4.3 7.2-6.7 9.8-2.5 2.7-7 6.1-10 7.5-4.3 2.1-7 2.7-12 2.7-4.9 0-7.9-0.7-12-2.6-3-1.5-7.4-4.6-9.8-7-2.4-2.4-5.4-6.6-6.8-9.4-1.3-2.7-3-8.2-3.6-12-0.9-5.4-0.9-8.5 0-13.7 0.7-3.8 2.3-8.9 3.6-11.5 1.3-2.7 3.6-6.3 5.2-8.2 1.6-1.9 4.7-4.6 6.9-6.1 2.2-1.5 5.4-3.2 7-3.8 1.6-0.6 5.9-1.1 9.5-1.1zm-11.8 31.2c-0.6 2.6-1.2 5.7-1.2 7 0 1.2 0.5 3.9 1 6 0.6 2 2.5 5.3 4.3 7.2 1.7 1.9 4.5 3.7 6.2 4 2 0.4 4.1-0.1 6.3-1.5 1.7-1.1 4.1-3.8 5.2-6 1.2-2.5 2-6.2 2.1-9.7 0.1-3.2-0.5-7.4-1.3-9.3-0.8-1.9-2.9-4.7-4.6-6.2-2.2-2-4.3-2.8-6.8-2.8-2.8 0-4.4 0.8-6.8 3.3-1.8 1.8-3.7 5.2-4.4 8z"/>
		<path id="Path 4" fill-rule="evenodd" class="s0" d="m143 181c5.1 0 7.8 0.6 12.5 2.8 3.3 1.6 7.7 4.8 9.8 7 2 2.3 4.8 6.5 6.2 9.2 1.4 2.8 3 8 3.7 11.8 0.9 5.1 0.9 8.4 0 13.7-0.6 3.8-2.3 9.3-3.6 12-1.4 2.8-4.4 7-6.8 9.4-2.4 2.4-6.8 5.5-9.8 7-4.1 1.9-7.1 2.6-12 2.6-5 0-7.7-0.6-12-2.7-3-1.4-7.5-4.8-10-7.5-2.4-2.6-5.4-7-6.6-9.8-1.3-2.7-2.8-7.9-3.3-11.5-0.7-4.5-0.7-8.5 0-13 0.6-3.6 2.1-8.7 3.4-11.5 1.3-2.7 3.9-6.8 5.8-9 1.9-2.3 6.1-5.4 9.7-7.2 5.3-2.7 7.6-3.3 13-3.3zm-10.8 29c-0.8 1.9-1.4 6.1-1.3 9.3 0.1 3.5 0.9 7.2 2.1 9.7 1.1 2.2 3.5 4.9 5.3 6 2.2 1.4 4.1 1.9 6.2 1.5 1.7-0.3 4.2-1.8 5.8-3.3 1.5-1.5 3.5-4.9 4.4-7.7 1-3.3 1.3-6.5 0.9-9.2-0.3-2.4-1.5-6.1-2.6-8.3-1.1-2.2-3-4.7-4.2-5.5-1.3-0.8-3.7-1.5-5.5-1.5-2 0-4.3 1-6.4 2.8-1.8 1.5-3.9 4.3-4.7 6.2z"/>
		<path id="Path 5" class="s0" d="m443.6 121c1.3 0 3.8 0.7 5.4 1.5 2.1 1.1 4.1 3.6 6.6 8.8 2 3.9 4.9 11 6.4 15.7 1.5 4.7 3.4 12.3 4 17 0.8 5.2 1.1 13.2 0.7 20.5-0.3 8.3-1.3 15.1-3.1 22-1.5 5.5-3.5 11.3-4.4 13-1.1 1.8-3.2 3.4-5.2 4.1-1.9 0.6-4.4 0.9-5.5 0.7-1.1-0.2-3.3-1.5-4.8-3.1-2-1.9-2.8-3.7-2.8-6.2 0.1-1.9 0.9-6 2-9 1-3 2.4-8.8 3-12.8 0.6-3.9 1.1-10.2 1.1-13.9 0-3.8-0.5-9.7-1-13.3-0.6-3.6-1.8-8.7-2.6-11.5-0.9-2.7-3.4-8.9-5.5-13.7-2.7-6.2-3.8-9.7-3.4-11.8 0.3-1.7 1.8-4.1 3.6-5.5 1.7-1.4 4.2-2.5 5.5-2.5z"/>
		<path id="Path 6" fill-rule="evenodd" class="s0" d="m305.5 103.3c6.3 0.1 9.2 0.8 13.5 2.9 3 1.4 7.7 4.8 10.3 7.5 2.7 2.6 6.4 7.9 8.3 11.8 1.9 3.8 3.9 9.7 4.5 13 0.6 3.3 0.8 9.3 0.5 13.3-0.3 3.9-1.6 10-2.9 13.5-1.2 3.4-3.8 8.5-5.8 11.2-2 2.8-5.8 6.6-8.5 8.6-2.7 2-6.9 4.4-9.4 5.3-2.7 1.1-7.3 1.8-11.5 1.9-5.7 0-8.2-0.5-13.5-3-3.9-1.8-8.5-4.9-11.4-7.9-2.7-2.7-6.3-8-8.2-11.9-2-4.1-3.9-10.1-4.5-14.5-0.9-5.7-1-9.3-0.1-15 0.7-4.5 2.6-10.3 4.6-14.5 2.3-4.7 5.3-8.8 9.3-12.5 3.5-3.4 8-6.4 11.3-7.8 4.4-1.7 7.2-2.1 13.5-1.9zm-13.2 25.2c-0.6 1.1-2.2 4.3-3.4 7-1.4 3.2-2.3 7.1-2.3 11-0.1 3.3 0.6 8.2 1.4 10.9 0.8 2.8 3.1 6.7 5 8.8 1.9 2.2 5.3 4.5 7.5 5.2 2.6 0.9 5.2 1.1 7.5 0.5 2.1-0.5 5.1-2.5 7.6-5.1 2.9-3 4.7-6.1 5.9-10.3 1.2-4.2 1.6-7.7 1.2-11.5-0.3-3-1.3-7.1-2-9-0.8-1.9-2.8-5-4.3-6.9-1.6-1.8-4.1-4-5.7-4.7-1.5-0.8-4.4-1.4-6.5-1.4-2 0-5.3 0.8-7.2 1.8-1.9 0.9-4 2.6-4.7 3.7z"/>
		<path id="Path 7" fill-rule="evenodd" class="s0" d="m207.3 103c4.6 0 8.5 0.7 12.4 2.2 3.8 1.5 7.8 4.2 11.6 7.8 4 3.7 7 7.7 9.3 12.5 2 4.1 3.9 10.1 4.5 14.5 0.9 5.7 1 9.3 0.1 15-0.7 4.5-2.6 10.3-4.6 14.5-1.9 3.9-5.5 9.2-8.2 11.9-2.9 3-7.5 6.1-11.4 7.9-5.3 2.4-7.8 3-13.5 3-5.5 0-8.3-0.6-13-2.7-3.3-1.5-7.6-4-9.5-5.5-1.9-1.6-5.2-5.2-7.2-8.2-2.1-3-4.7-8.1-5.8-11.4-1.1-3.3-2.3-9.2-2.6-13-0.4-3.8-0.1-9.7 0.5-13 0.6-3.3 2.6-9.2 4.5-13 1.9-3.8 4.9-8.6 6.8-10.6 1.8-1.9 5.1-4.7 7.3-6.2 2.2-1.5 5.8-3.4 8-4.2 2.2-0.8 7-1.4 10.7-1.5zm-12.3 26.6c-1.2 1.6-2.7 4.5-3.5 6.4-0.8 1.9-1.8 6-2.1 9-0.4 3.8 0 7.3 1.2 11.5 1.2 4.2 3 7.3 5.9 10.3 2.5 2.6 5.5 4.6 7.6 5.1 2.3 0.6 4.9 0.4 7.5-0.5 2.2-0.7 5.6-3 7.5-5.2 1.9-2.1 4.2-6 5-8.8 0.8-2.7 1.5-7.6 1.4-10.9 0-3.9-0.9-7.8-2.3-11-1.2-2.8-3.2-6.1-4.4-7.3-1.2-1.3-3.4-3-5-3.8-1.5-0.8-4.4-1.4-6.5-1.4-2 0-5.2 0.9-7 1.9-1.8 1-4.2 3.2-5.3 4.7z"/>
	</g>
</svg>