<svg width="500" height="500" viewBox="0 0 500 500" fill="none" xmlns="http://www.w3.org/2000/svg">
<path d="M434 190.62C431.384 183.932 428.087 177.532 424.16 171.52C406.78 145 374.56 127.45 347 114C263 73 193 118 154 164C115 210 69 234 64 284C59 334 88 389 168 398C248 407 311 346 365 353C447.52 363.69 455 243.89 434 190.62Z" fill="#797979"/>
<path opacity="0.7" d="M434 190.62C431.384 183.932 428.087 177.532 424.16 171.52C406.78 145 374.56 127.45 347 114C263 73 193 118 154 164C115 210 69 234 64 284C59 334 88 389 168 398C248 407 311 346 365 353C447.52 363.69 455 243.89 434 190.62Z" fill="white"/>
<path d="M241.86 205.55C232.3 199 218 197.87 218 197.87C239 194.58 259.14 201.17 259.14 201.17C259.14 201.17 245.74 191.29 236.14 191.29C226.54 191.29 211.27 190.19 211.27 190.19C217 183.61 238 175.93 238 175.93C238 175.93 222.69 175.93 216 177.03C209.31 178.13 207.39 185.8 207.39 185.8C207.39 185.8 205.48 181.41 191.13 178.12C176.78 174.83 173 185.8 173 185.8H186.39C191.18 185.8 197.87 192.39 197.87 192.39C197.87 192.39 182.57 192.39 176.87 195.68C171.93 198.51 165.59 210.26 163.87 213.49C167.806 193.259 173.398 173.385 180.59 154.07L180.97 153.78C190.38 147 194.42 143 194.42 143L210.61 170L209.26 147C209.26 147 222.74 151.05 226.79 155.09C230.84 159.13 243 172.66 243 172.66C243 172.66 237.6 152.44 230.86 145.66C224.12 138.88 212 130.86 212 130.86C212 130.86 226.84 130.86 232.23 133.56C237.62 136.26 253.76 147 253.76 147C253.76 147 243 128.16 234.88 124.12C226.76 120.08 205.21 120.07 205.21 120.07C205.21 120.07 214.65 111.98 221.39 111.98H240.27C240.27 111.98 234.88 98.5 214.65 102.54C194.42 106.58 191.73 112 191.73 112C191.73 112 189.03 102.56 179.59 101.22C170.15 99.88 148.59 99.87 148.59 99.87C148.59 99.87 178.25 109.31 186.34 117.4C186.34 117.4 164.77 118.75 151.28 118.75C137.79 118.75 118.92 130.88 118.92 130.88C118.92 130.88 147.24 122.79 176.92 126.88C176.92 126.88 156.7 128.22 143.21 136.32C129.72 144.42 116.21 163.32 116.21 163.32C116.21 163.32 128.35 151.19 144.53 147.14C160.71 143.09 183.64 137.7 183.64 137.7C183.64 137.7 160.71 156.48 158 165.92C155.29 175.36 147.21 191.54 147.21 191.54C147.21 191.54 166.54 166.84 177.41 156.74C168.41 181.54 157.06 221.49 155.66 267.63C151.66 251.27 140 217.41 109.49 200.44C115.27 202.02 123.6 204.32 130.32 206.24C141.8 209.53 150.41 219.41 150.41 219.41C150.41 219.41 140.84 204.05 131.27 197.46C121.7 190.87 107.35 189.78 107.35 189.78C128.35 186.49 148.49 193.07 148.49 193.07C148.49 193.07 135.1 183.2 125.49 183.2C115.88 183.2 100.62 182.1 100.62 182.1C106.36 175.52 127.41 167.84 127.41 167.84C127.41 167.84 112.1 167.84 105.41 168.93C98.72 170.02 96.8 177.71 96.8 177.71C96.8 177.71 94.89 173.32 80.53 170.03C66.17 166.74 62.36 177.71 62.36 177.71H75.8C80.58 177.71 87.28 184.3 87.28 184.3C87.28 184.3 71.97 184.3 66.28 187.59C60.59 190.88 52.89 206.24 52.89 206.24C52.89 206.24 64.37 197.46 68.2 195.24C72.03 193.02 82.55 193.04 82.55 193.04C82.55 193.04 73.94 199.63 69.15 205.11C64.36 210.59 60.54 227.11 60.54 227.11C60.54 227.11 69.15 216.11 72.02 212.85C74.89 209.59 84.46 206.26 84.46 206.26L83.46 224.92L94.95 202.92C97.9153 206.079 101.111 209.014 104.51 211.7C111.21 217.18 128.43 242.42 128.43 242.42C128.43 242.42 122.69 229.25 120.78 221.57C119.2 215.25 107.91 203.73 103.97 199.86C142.97 218.16 153.29 264.22 155.17 274.86H139L142.56 306.19H171L174.55 274.86H157.85C158.85 268.48 162.43 249.43 171.85 232.13C171.36 233.95 171.08 235.13 171.08 235.13C171.08 235.13 179.69 224.13 182.57 220.87C185.45 217.61 195 214.33 195 214.33L194 233L205.48 211C208.448 214.16 211.647 217.095 215.05 219.78C221.74 225.27 238.96 250.5 238.96 250.5C238.96 250.5 233.22 237.33 231.31 229.65C229.4 221.97 213.13 206.65 213.13 206.65C213.13 206.65 229.4 211.04 240.88 214.33C252.36 217.62 261 227.5 261 227.5C261 227.5 251.43 212.14 241.86 205.55ZM157.79 264.7C158.504 247.705 160.49 230.788 163.73 214.09C165.54 212.71 175.25 205.35 178.73 203.36C182.56 201.17 193.08 201.17 193.08 201.17C193.08 201.17 184.47 207.75 179.68 213.24C177.62 215.61 175.73 220.03 174.25 224.24C165.18 237.92 160.27 254 157.79 264.7Z" fill="#797979"/>
<path opacity="0.5" d="M241.86 205.55C232.3 199 218 197.87 218 197.87C239 194.58 259.14 201.17 259.14 201.17C259.14 201.17 245.74 191.29 236.14 191.29C226.54 191.29 211.27 190.19 211.27 190.19C217 183.61 238 175.93 238 175.93C238 175.93 222.69 175.93 216 177.03C209.31 178.13 207.39 185.8 207.39 185.8C207.39 185.8 205.48 181.41 191.13 178.12C176.78 174.83 173 185.8 173 185.8H186.39C191.18 185.8 197.87 192.39 197.87 192.39C197.87 192.39 182.57 192.39 176.87 195.68C171.93 198.51 165.59 210.26 163.87 213.49C167.806 193.259 173.398 173.385 180.59 154.07L180.97 153.78C190.38 147 194.42 143 194.42 143L210.61 170L209.26 147C209.26 147 222.74 151.05 226.79 155.09C230.84 159.13 243 172.66 243 172.66C243 172.66 237.6 152.44 230.86 145.66C224.12 138.88 212 130.86 212 130.86C212 130.86 226.84 130.86 232.23 133.56C237.62 136.26 253.76 147 253.76 147C253.76 147 243 128.16 234.88 124.12C226.76 120.08 205.21 120.07 205.21 120.07C205.21 120.07 214.65 111.98 221.39 111.98H240.27C240.27 111.98 234.88 98.5 214.65 102.54C194.42 106.58 191.73 112 191.73 112C191.73 112 189.03 102.56 179.59 101.22C170.15 99.88 148.59 99.87 148.59 99.87C148.59 99.87 178.25 109.31 186.34 117.4C186.34 117.4 164.77 118.75 151.28 118.75C137.79 118.75 118.92 130.88 118.92 130.88C118.92 130.88 147.24 122.79 176.92 126.88C176.92 126.88 156.7 128.22 143.21 136.32C129.72 144.42 116.21 163.32 116.21 163.32C116.21 163.32 128.35 151.19 144.53 147.14C160.71 143.09 183.64 137.7 183.64 137.7C183.64 137.7 160.71 156.48 158 165.92C155.29 175.36 147.21 191.54 147.21 191.54C147.21 191.54 166.54 166.84 177.41 156.74C168.41 181.54 157.06 221.49 155.66 267.63C151.66 251.27 140 217.41 109.49 200.44C115.27 202.02 123.6 204.32 130.32 206.24C141.8 209.53 150.41 219.41 150.41 219.41C150.41 219.41 140.84 204.05 131.27 197.46C121.7 190.87 107.35 189.78 107.35 189.78C128.35 186.49 148.49 193.07 148.49 193.07C148.49 193.07 135.1 183.2 125.49 183.2C115.88 183.2 100.62 182.1 100.62 182.1C106.36 175.52 127.41 167.84 127.41 167.84C127.41 167.84 112.1 167.84 105.41 168.93C98.72 170.02 96.8 177.71 96.8 177.71C96.8 177.71 94.89 173.32 80.53 170.03C66.17 166.74 62.36 177.71 62.36 177.71H75.8C80.58 177.71 87.28 184.3 87.28 184.3C87.28 184.3 71.97 184.3 66.28 187.59C60.59 190.88 52.89 206.24 52.89 206.24C52.89 206.24 64.37 197.46 68.2 195.24C72.03 193.02 82.55 193.04 82.55 193.04C82.55 193.04 73.94 199.63 69.15 205.11C64.36 210.59 60.54 227.11 60.54 227.11C60.54 227.11 69.15 216.11 72.02 212.85C74.89 209.59 84.46 206.26 84.46 206.26L83.46 224.92L94.95 202.92C97.9153 206.079 101.111 209.014 104.51 211.7C111.21 217.18 128.43 242.42 128.43 242.42C128.43 242.42 122.69 229.25 120.78 221.57C119.2 215.25 107.91 203.73 103.97 199.86C142.97 218.16 153.29 264.22 155.17 274.86H139L142.56 306.19H171L174.55 274.86H157.85C158.85 268.48 162.43 249.43 171.85 232.13C171.36 233.95 171.08 235.13 171.08 235.13C171.08 235.13 179.69 224.13 182.57 220.87C185.45 217.61 195 214.33 195 214.33L194 233L205.48 211C208.448 214.16 211.647 217.095 215.05 219.78C221.74 225.27 238.96 250.5 238.96 250.5C238.96 250.5 233.22 237.33 231.31 229.65C229.4 221.97 213.13 206.65 213.13 206.65C213.13 206.65 229.4 211.04 240.88 214.33C252.36 217.62 261 227.5 261 227.5C261 227.5 251.43 212.14 241.86 205.55ZM157.79 264.7C158.504 247.705 160.49 230.788 163.73 214.09C165.54 212.71 175.25 205.35 178.73 203.36C182.56 201.17 193.08 201.17 193.08 201.17C193.08 201.17 184.47 207.75 179.68 213.24C177.62 215.61 175.73 220.03 174.25 224.24C165.18 237.92 160.27 254 157.79 264.7Z" fill="white"/>
<path d="M298.07 217.07C305.26 205.07 307.86 190.24 304.07 176.79C300.14 162.71 288.91 150.61 274.82 146.71C258.82 142.29 241.74 148.38 227.45 156.81C213.16 165.24 200.27 176.13 185 182.69C180.61 184.57 175.49 186.06 171.2 184C157.38 177.36 178.48 165.41 183.2 162.53C194.999 155.289 207.406 149.089 220.28 144C238.75 136.7 258.7 131.68 278.38 134.27C298.06 136.86 317.38 148.2 325.49 166.34C331.98 180.94 330.57 197.73 328.12 213.52C327.34 218.58 326.32 223.92 322.86 227.69C317.71 233.3 308.95 233.55 301.44 232.2C298.66 231.71 295.55 230.76 294.36 228.2C292.92 225.07 295.15 221.6 297.02 218.71C297.38 218.19 297.73 217.643 298.07 217.07Z" fill="#797979"/>
<path d="M192.89 156.92C189.63 158.72 186.4 160.58 183.22 162.53C178.51 165.41 157.41 177.36 171.22 184C175.51 186.06 180.63 184.57 185.02 182.69C191.571 179.76 197.86 176.278 203.82 172.28C201.89 163.36 197.5 159 192.89 156.92Z" fill="white"/>
<path d="M298.07 217.07C305.26 205.07 307.86 190.24 304.07 176.79C300.14 162.71 288.91 150.61 274.82 146.71C258.82 142.29 241.74 148.38 227.45 156.81C213.16 165.24 200.27 176.13 185 182.69C180.61 184.57 175.49 186.06 171.2 184C157.38 177.36 178.48 165.41 183.2 162.53C194.999 155.289 207.406 149.089 220.28 144C238.75 136.7 258.7 131.68 278.38 134.27C298.06 136.86 317.38 148.2 325.49 166.34C331.98 180.94 330.57 197.73 328.12 213.52C327.34 218.58 326.32 223.92 322.86 227.69C317.71 233.3 308.95 233.55 301.44 232.2C298.66 231.71 295.55 230.76 294.36 228.2C292.92 225.07 295.15 221.6 297.02 218.71C297.38 218.19 297.73 217.643 298.07 217.07Z" stroke="#263238" stroke-width="1.5" stroke-miterlimit="10"/>
<path d="M298.07 217.07C305.26 205.07 307.86 190.24 304.07 176.79C300.14 162.71 288.91 150.61 274.82 146.71C258.82 142.29 241.74 148.38 227.45 156.81C213.16 165.24 200.27 176.13 185 182.69C180.61 184.57 175.49 186.06 171.2 184C157.38 177.36 178.48 165.41 183.2 162.53C194.999 155.289 207.406 149.089 220.28 144C238.75 136.7 258.7 131.68 278.38 134.27C298.06 136.86 317.38 148.2 325.49 166.34C331.98 180.94 330.57 197.73 328.12 213.52C327.34 218.58 326.32 223.92 322.86 227.69C317.71 233.3 308.95 233.55 301.44 232.2C298.66 231.71 295.55 230.76 294.36 228.2C292.92 225.07 295.15 221.6 297.02 218.71C297.38 218.19 297.73 217.643 298.07 217.07Z" fill="#797979"/>
<path d="M293.88 147.26C290.82 153.2 293.88 154.69 293.88 154.69C293.88 154.69 293.58 152.22 295.47 147.83C296.411 145.366 298.282 143.369 300.68 142.27C300.68 142.27 296.94 141.31 293.88 147.26Z" fill="#263238"/>
<path d="M277.37 140.29C275.25 145.54 277.76 147.03 277.76 147.03C277.625 144.94 277.942 142.846 278.69 140.89C279.96 137 282.52 136.1 282.52 136.1C282.52 136.1 279.5 135 277.37 140.29Z" fill="#263238"/>
<path d="M258.24 138.14C256.12 143.39 258.63 144.88 258.63 144.88C258.487 142.791 258.801 140.696 259.55 138.74C260.83 134.85 263.38 133.95 263.38 133.95C263.38 133.95 260.36 132.89 258.24 138.14Z" fill="#263238"/>
<path d="M314.75 154.31C314.75 154.31 312 150.91 305.16 153.83C298.32 156.75 300.09 160.14 300.09 160.14C300.09 160.14 301.52 157.85 306.24 155.44C308.83 153.996 311.873 153.592 314.75 154.31V154.31Z" fill="#263238"/>
<path d="M311.55 166.59C314.034 164.97 317.039 164.352 319.96 164.86C319.96 164.86 316.96 161.66 310.35 165.07C303.74 168.48 305.75 171.72 305.75 171.72C305.75 171.72 307 169.33 311.55 166.59Z" fill="#263238"/>
<path d="M315 178C306 180.2 307.2 184.8 307.2 184.8C307.2 184.8 309.54 182.24 315.84 180.23C322.14 178.22 326.3 180.64 326.3 180.64C326.3 180.64 324 175.83 315 178Z" fill="#263238"/>
<path d="M314.86 198.76C305.8 200.58 306.78 205.23 306.78 205.23C306.78 205.23 309.23 202.77 315.61 201.02C321.99 199.27 326.04 201.86 326.04 201.86C326.04 201.86 323.92 196.93 314.86 198.76Z" fill="#263238"/>
<path d="M192.89 156.92C189.63 158.72 186.4 160.58 183.22 162.53C178.51 165.41 157.41 177.36 171.22 184C175.51 186.06 180.63 184.57 185.02 182.69C191.571 179.76 197.86 176.278 203.82 172.28C201.89 163.36 197.5 159 192.89 156.92Z" fill="white"/>
<path d="M298.07 217.07C305.26 205.07 307.86 190.24 304.07 176.79C300.14 162.71 288.91 150.61 274.82 146.71C258.82 142.29 241.74 148.38 227.45 156.81C213.16 165.24 200.27 176.13 185 182.69C180.61 184.57 175.49 186.06 171.2 184C157.38 177.36 178.48 165.41 183.2 162.53C194.999 155.289 207.406 149.089 220.28 144C238.75 136.7 258.7 131.68 278.38 134.27C298.06 136.86 317.38 148.2 325.49 166.34C331.98 180.94 330.57 197.73 328.12 213.52C327.34 218.58 326.32 223.92 322.86 227.69C317.71 233.3 308.95 233.55 301.44 232.2C298.66 231.71 295.55 230.76 294.36 228.2C292.92 225.07 295.15 221.6 297.02 218.71C297.38 218.19 297.73 217.643 298.07 217.07Z" stroke="#263238" stroke-width="1.5" stroke-miterlimit="10"/>
<path d="M282 339.57C282 339.57 324.15 343.3 315.08 347.04C306.01 350.78 299.08 349.17 262.79 353.97C226.5 358.77 174.22 358.78 150.21 358.78C126.2 358.78 119.8 363.05 133.67 363.05C147.54 363.05 175.82 363.05 230.78 365.18C285.74 367.31 350.78 380.12 383.9 366.78C417.02 353.44 384.97 341.7 384.97 341.7C384.97 341.7 397.78 339.04 387.11 334.77C376.44 330.5 335.35 326.23 316.11 323.56C296.87 320.89 286.24 326.76 299.57 326.76C312.9 326.76 375.87 333.17 367.87 338.5C359.87 343.83 320.92 337.97 308.11 335.3C295.3 332.63 278.77 335.3 282 339.57Z" fill="#263238"/>
<path d="M327.67 317.8C327.67 317.8 331.06 334.44 336.29 343.38C341.52 352.32 352.01 351.7 353.55 344.61C355.09 337.52 348.01 328.61 346.16 321.81C344.31 315.01 344.62 303.01 344.62 303.01C344.62 303.01 327.05 301.47 327.67 317.8Z" fill="#797979"/>
<path d="M333.35 337.19C334.18 339.321 335.163 341.39 336.29 343.38C341.53 352.32 352.01 351.7 353.55 344.61C354.7 339.36 351.1 333.09 348.41 327.44C345.286 327.681 342.272 328.7 339.642 330.403C337.012 332.105 334.849 334.439 333.35 337.19V337.19Z" fill="white"/>
<path d="M327.67 317.8C327.67 317.8 331.06 334.44 336.29 343.38C341.52 352.32 352.01 351.7 353.55 344.61C355.09 337.52 348.01 328.61 346.16 321.81C344.31 315.01 344.62 303.01 344.62 303.01C344.62 303.01 327.05 301.47 327.67 317.8Z" stroke="#263238" stroke-width="1.5" stroke-miterlimit="10"/>
<path d="M342.46 338.45C342.46 338.45 346.77 344 345.54 349.55" stroke="#263238" stroke-width="1.5" stroke-miterlimit="10" stroke-linecap="round"/>
<path d="M347.7 336.29C349.58 337.361 351.015 339.067 351.749 341.102C352.482 343.137 352.465 345.367 351.7 347.39" stroke="#263238" stroke-width="1.5" stroke-miterlimit="10" stroke-linecap="round"/>
<path d="M317.8 326.43C317.8 326.43 308.87 335.68 299.31 338.43C289.75 341.18 280.2 340.59 281.44 336.27C282.68 331.95 286.98 330.42 292.53 330.42C298.08 330.42 309.53 319.01 309.53 319.01C309.53 319.01 321.81 311.33 317.8 326.43Z" fill="#797979" stroke="#263238" stroke-width="1.5" stroke-miterlimit="10"/>
<path d="M209.93 281.13C209.93 281.13 196.68 287.29 194.21 294.07C192.605 298.691 191.372 303.433 190.52 308.25C190.52 308.25 173.87 315.95 161.24 320.25C148.61 324.55 135.66 326.1 128.24 331.34C120.82 336.58 120.53 342.44 124.85 346.75C129.17 351.06 137.79 349.53 140.57 347.98C143.35 346.43 149.81 340.28 158.44 338.74C167.07 337.2 192.96 342.44 208.06 339.35C223.16 336.26 236.06 331.35 239.5 331.35C242.94 331.35 256.5 333.2 265.39 327.35C274.28 321.5 268.47 294.35 261.69 281.12C254.91 267.89 219.18 276.5 209.93 281.13Z" fill="#797979"/>
<path d="M241.36 305.53C236.01 296.67 231.62 280.03 223.11 276.77C218.581 277.777 214.166 279.237 209.93 281.13C209.93 281.13 208.55 281.77 206.59 282.87C203.44 286.48 203.59 290.4 206.74 292.87C211.94 296.87 230.4 318.26 225.21 316.52C224.353 316.209 223.539 315.789 222.79 315.27C217.21 311.62 208.6 302.2 202.13 299.22C194.63 295.75 209.05 314.79 209.05 320.56C209.05 326.33 203.28 321.14 198.05 314.79C192.82 308.44 191.7 314.22 194.59 320.56C197.48 326.9 193.43 329.79 181.32 329.79C169.21 329.79 154.78 330.37 154.78 330.37C154.339 327.683 153.07 325.201 151.15 323.27C142.06 325.69 133.65 327.55 128.22 331.39C120.82 336.63 120.51 342.49 124.83 346.8C129.15 351.11 137.77 349.58 140.55 348.03C143.33 346.48 149.79 340.33 158.42 338.79C167.05 337.25 192.94 342.49 208.04 339.4C223.14 336.31 236.04 331.4 239.48 331.4C242.64 331.4 254.62 333 263.48 328.49C259.93 325.56 246.92 314.74 241.36 305.53Z" fill="white"/>
<path d="M209.93 281.13C209.93 281.13 196.68 287.29 194.21 294.07C192.605 298.691 191.372 303.433 190.52 308.25C190.52 308.25 173.87 315.95 161.24 320.25C148.61 324.55 135.66 326.1 128.24 331.34C120.82 336.58 120.53 342.44 124.85 346.75C129.17 351.06 137.79 349.53 140.57 347.98C143.35 346.43 149.81 340.28 158.44 338.74C167.07 337.2 192.96 342.44 208.06 339.35C223.16 336.26 236.06 331.35 239.5 331.35C242.94 331.35 256.5 333.2 265.39 327.35C274.28 321.5 268.47 294.35 261.69 281.12C254.91 267.89 219.18 276.5 209.93 281.13Z" stroke="#263238" stroke-width="1.5" stroke-miterlimit="10"/>
<path d="M128.26 341.84C129.624 341.84 130.73 340.734 130.73 339.37C130.73 338.006 129.624 336.9 128.26 336.9C126.896 336.9 125.79 338.006 125.79 339.37C125.79 340.734 126.896 341.84 128.26 341.84Z" fill="#263238"/>
<path d="M138.43 342.76C140.982 342.76 143.05 340.692 143.05 338.14C143.05 335.588 140.982 333.52 138.43 333.52C135.878 333.52 133.81 335.588 133.81 338.14C133.81 340.692 135.878 342.76 138.43 342.76Z" fill="#263238"/>
<path d="M132.27 347.39C133.634 347.39 134.74 346.284 134.74 344.92C134.74 343.556 133.634 342.45 132.27 342.45C130.906 342.45 129.8 343.556 129.8 344.92C129.8 346.284 130.906 347.39 132.27 347.39Z" fill="#263238"/>
<path d="M138.43 347.39C139.794 347.39 140.9 346.284 140.9 344.92C140.9 343.556 139.794 342.45 138.43 342.45C137.066 342.45 135.96 343.556 135.96 344.92C135.96 346.284 137.066 347.39 138.43 347.39Z" fill="#263238"/>
<path d="M230.89 308.55C245.07 323.96 255.55 330.75 270.03 332.55C284.51 334.35 303.32 332.55 317.8 326.39C332.28 320.23 335.68 316.22 335.68 316.22C339.095 314.49 342.389 312.533 345.54 310.36C352.63 305.74 365.54 292.18 368.96 274.61C371.88 259.48 369.48 242.71 361.71 229.33C352.71 213.77 336.15 205.8 318.43 205.49C307.66 205.31 297.68 209.18 288.83 215.13C271.88 226.53 267.83 236.4 267.83 236.4H250.31C250.31 236.4 241.68 233.01 225.96 249.03" fill="#797979"/>
<path d="M357.33 279C356.18 268 350.41 280.16 348.68 284.19C345.27 292.19 346.95 265.19 341.75 258.81C336.55 252.43 342.91 274.39 341.18 281.89C339.45 289.39 340.6 276.69 336.56 269.19C332.52 261.69 338.29 279 329.64 288.81C320.99 298.62 305.4 289.39 305.4 289.39C312.64 309.88 293.28 325.61 280.87 333.28C293.13 333.34 306.73 331.15 317.8 326.44C332.29 320.28 335.68 316.27 335.68 316.27C339.095 314.54 342.389 312.583 345.54 310.41C347.481 309.097 349.308 307.621 351 306C355.82 296.35 358.14 286.68 357.33 279Z" fill="white"/>
<path d="M230.89 308.55C245.07 323.96 255.55 330.75 270.03 332.55C284.51 334.35 303.32 332.55 317.8 326.39C332.28 320.23 335.68 316.22 335.68 316.22C339.095 314.49 342.389 312.533 345.54 310.36C352.63 305.74 365.54 292.18 368.96 274.61C371.88 259.48 369.48 242.71 361.71 229.33C352.71 213.77 336.15 205.8 318.43 205.49C307.66 205.31 297.68 209.18 288.83 215.13C271.88 226.53 267.83 236.4 267.83 236.4H250.31C250.31 236.4 241.68 233.01 225.96 249.03" stroke="#263238" stroke-width="1.5" stroke-miterlimit="10"/>
<path d="M214.86 287.6C214.86 287.6 225.34 303.6 242.86 307.6C260.38 311.6 264.74 287.26 263.2 274.6C261.66 261.94 256.11 262.27 253.96 265.05C251.81 267.83 241.63 276.14 231.46 278.3C221.29 280.46 213.32 282.05 214.86 287.6Z" fill="white"/>
<path d="M201.2 219.2C197.841 218.64 194.434 218.412 191.03 218.52C186.96 218.86 178.82 222.59 175.09 223.26C171.36 223.93 173.09 225.26 177.81 230.72C182.53 236.18 193.74 239.54 193.74 239.54L201.2 219.2Z" fill="#797979" stroke="#263238" stroke-width="1.5" stroke-miterlimit="10"/>
<path d="M259.85 258.86C259.85 258.86 254.09 273.44 245.28 278.19C240.044 281.035 234.232 282.659 228.28 282.94C228.28 282.94 222.18 288.7 210.99 289.38C199.8 290.06 192.99 279.88 192.99 276.49V267.34C192.99 267.34 185.87 258.52 186.21 253.78C186.55 249.04 186.89 227.67 199.1 219.2C211.31 210.73 223.17 211.74 232.66 213.77C242.15 215.8 252.66 227.33 256.05 234.11C259.44 240.89 259.45 249.37 259.45 249.37" fill="#797979"/>
<path d="M211.94 273.8L206.74 265.14C206.74 265.14 205.59 254.76 199.82 248.99C194.05 243.22 198 267 198 267C196.276 267.378 194.622 268.026 193.1 268.92V276.48C193.1 279.87 199.88 290.05 211.1 289.37C215.216 289.141 219.249 288.122 222.98 286.37C221.1 277.51 211.94 273.8 211.94 273.8Z" fill="white"/>
<path d="M210.32 270C210.32 270 213.73 263.18 222.68 268.29" stroke="#263238" stroke-width="2" stroke-miterlimit="10" stroke-linecap="round"/>
<path d="M191.57 261.05C191.57 261.05 194.98 258.91 195.83 264.88" stroke="#263238" stroke-width="2" stroke-miterlimit="10" stroke-linecap="round"/>
<path d="M200.94 283.64C200.94 283.64 203.07 287.47 206.49 288.75" stroke="#263238" stroke-miterlimit="10" stroke-linecap="round"/>
<path d="M214.24 247.84C214.24 247.84 216.55 255.91 228.09 257.64C239.63 259.37 243.53 254.77 239.85 250.73C236.17 246.69 216.55 247.84 214.24 247.84Z" fill="#263238"/>
<path d="M239.85 250.73C239.85 250.73 230.36 253.44 222.9 253.44C215.44 253.44 212.05 247 210.35 245C208.65 243 217.13 235.51 227.35 237.54C237.57 239.57 239.85 250.73 239.85 250.73Z" fill="#797979" stroke="#263238" stroke-width="1.5" stroke-miterlimit="10"/>
<path d="M204 283.47C204.84 282.74 205 281.53 203.39 281C201.26 280.3 197.81 279.44 198.53 281.58C198.831 282.376 199.386 283.052 200.109 283.502C200.832 283.952 201.683 284.151 202.53 284.07C203.072 284.035 203.588 283.824 204 283.47V283.47Z" fill="#263238"/>
<path d="M250 269.18C250 269.18 247.69 270.91 240.76 270.91C233.83 270.91 228.65 270.34 228.65 270.34C228.65 270.34 237.3 273.22 241.92 273.8C246.54 274.38 250 269.18 250 269.18Z" fill="#263238"/>
<path d="M243.09 277.26C243.09 277.26 239.09 280.72 234.44 278.99C229.79 277.26 224.05 274.38 224.05 274.38C224.05 274.38 238.48 278.42 243.09 277.26Z" fill="#263238"/>
<path d="M216 225.33C216 225.33 206.2 229.33 205 240.33C203.8 251.33 205 257.63 205 257.63C205 257.63 207.32 235.72 216 225.33Z" fill="#263238"/>
<path d="M200.4 227.07C200.4 227.07 194.58 229.51 193.74 239.54C192.9 249.57 192.9 256.54 192.9 256.54C192.9 256.54 195.78 235.14 200.4 227.07Z" fill="#263238"/>
<path d="M259.85 258.86C259.85 258.86 254.09 273.44 245.28 278.19C240.044 281.035 234.232 282.659 228.28 282.94C228.28 282.94 222.18 288.7 210.99 289.38C199.8 290.06 192.99 279.88 192.99 276.49V267.34C192.99 267.34 185.87 258.52 186.21 253.78C186.55 249.04 186.89 227.67 199.1 219.2C211.31 210.73 223.17 211.74 232.66 213.77C242.15 215.8 252.66 227.33 256.05 234.11C259.44 240.89 259.45 249.37 259.45 249.37" stroke="#263238" stroke-width="1.5" stroke-miterlimit="10"/>
<path d="M193.06 276.49C193.06 276.49 177.88 272.19 168.94 271.88" stroke="#263238" stroke-width="0.5" stroke-miterlimit="10" stroke-linecap="round"/>
<path d="M193.29 279C193.29 279 172.29 277.15 162.47 279" stroke="#263238" stroke-width="0.5" stroke-miterlimit="10" stroke-linecap="round"/>
<path d="M194.83 281.13C194.83 281.13 169.83 282.36 162.47 284.82" stroke="#263238" stroke-width="0.5" stroke-miterlimit="10" stroke-linecap="round"/>
<path d="M214.86 286.36C214.86 286.36 216.71 300.54 217.64 310.36" stroke="#263238" stroke-width="0.5" stroke-miterlimit="10" stroke-linecap="round"/>
<path d="M216.4 283.59C216.4 283.59 226.58 299.31 226.58 307.01" stroke="#263238" stroke-width="0.5" stroke-miterlimit="10" stroke-linecap="round"/>
<path d="M220.1 282.67C220.1 282.67 232.1 292.84 234.59 302.08" stroke="#263238" stroke-width="0.5" stroke-miterlimit="10" stroke-linecap="round"/>
<path d="M335.68 316.26C335.68 316.26 352.63 302.39 350.16 271.57" stroke="#263238" stroke-width="1.5" stroke-miterlimit="10" stroke-linecap="round"/>
<path d="M281.13 280.2C281.13 280.2 291.61 280.51 304.86 287.6C318.11 294.69 331.36 298.08 331.36 305.78C331.36 313.48 303.93 329.51 290.68 339.37C277.43 349.23 266.95 358.79 257.68 361.26C248.41 363.73 236.42 364.03 234.88 357.87C233.34 351.71 241.35 350.16 245.97 349.55C250.59 348.94 258.3 347.08 258.3 347.08L274 332C274 332 256.12 330.77 247.8 316.28" fill="#797979"/>
<path d="M256.94 325.15C256.94 325.15 267.32 324 273.09 314.76C278.86 305.52 280.59 293.99 280.59 293.99C280.59 293.99 280.59 307.26 276.59 315.92C272.59 324.58 256.94 325.15 256.94 325.15Z" fill="#263238"/>
<path d="M289.25 288.8C289.25 288.8 295.02 300.34 289.83 309.57C286.694 315.116 282.106 319.703 276.56 322.84C276.56 322.84 291.56 309 289.25 288.8Z" fill="#263238"/>
<path d="M271.94 340.15L280.59 345.92C280.59 345.92 280 338.42 271.94 340.15Z" fill="#263238"/>
<path d="M280 331.5L288.65 337.27C288.65 337.27 288.1 329.76 280 331.5Z" fill="#263238"/>
<path d="M295.6 321.69L304.25 327.46C304.25 327.46 303.67 320 295.6 321.69Z" fill="#263238"/>
<path d="M304.83 313L313.48 318.77C313.48 318.77 312.91 311.3 304.83 313Z" fill="#263238"/>
<path d="M262.76 354C262.17 351.23 258.61 349.14 255.4 347.78C252.74 348.37 248.8 349.2 245.99 349.58C241.37 350.19 233.36 351.73 234.9 357.9C236.44 364.07 248.46 363.75 257.7 361.29C260.033 360.619 262.278 359.676 264.39 358.48C263.648 357.067 263.1 355.56 262.76 354V354Z" fill="white"/>
<path d="M299.63 313C303.63 307.23 298.48 315.31 286.36 322.81C274.24 330.31 256.94 325.12 256.94 325.12L256.39 325.48C261.641 329.055 267.687 331.293 274 332L267 338.77C279.88 334 295.85 318.44 299.63 313Z" fill="white"/>
<path d="M281.13 280.2C281.13 280.2 291.61 280.51 304.86 287.6C318.11 294.69 331.36 298.08 331.36 305.78C331.36 313.48 303.93 329.51 290.68 339.37C277.43 349.23 266.95 358.79 257.68 361.26C248.41 363.73 236.42 364.03 234.88 357.87C233.34 351.71 241.35 350.16 245.97 349.55C250.59 348.94 258.3 347.08 258.3 347.08L274 332C274 332 256.12 330.77 247.8 316.28" stroke="#263238" stroke-width="1.5" stroke-miterlimit="10"/>
<path d="M274 332C274 332 299.27 327.07 302.35 305.8" stroke="#263238" stroke-width="1.5" stroke-miterlimit="10" stroke-linecap="round"/>
<path d="M234.9 357.87C234.9 357.87 237.36 353.24 241.06 352.63" stroke="#263238" stroke-width="1.5" stroke-miterlimit="10" stroke-linecap="round"/>
<path d="M238.9 361.26C238.9 361.26 240.75 354.48 246.3 354.48" stroke="#263238" stroke-width="1.5" stroke-miterlimit="10" stroke-linecap="round"/>
<path d="M276 238.6C276 238.6 293.31 240.34 306 253.03C318.69 265.72 321 289.38 321 283.03C321 276.68 317.54 259.38 310 250.14C302.46 240.9 281.17 235.72 276 238.6Z" fill="#263238"/>
<path d="M262.49 245.28C262.49 245.28 276.42 246.67 286.63 256.88C296.84 267.09 298.7 286.13 298.7 281C298.7 275.87 295.91 262 289.88 254.54C283.85 247.08 266.67 243 262.49 245.28Z" fill="#263238"/>
<path d="M286.94 228.8C286.94 228.8 304.25 230.53 316.94 243.22C329.63 255.91 331.94 279.57 331.94 273.22C331.94 266.87 328.48 249.57 320.94 240.34C313.4 231.11 292.13 225.91 286.94 228.8Z" fill="#263238"/>
<path d="M301.37 212.06C301.37 212.06 318.67 213.79 331.37 226.49C344.07 239.19 346.37 262.84 346.37 256.49C346.37 250.14 342.91 232.83 335.37 223.6C327.83 214.37 306.56 209.18 301.37 212.06Z" fill="#263238"/>
<path d="M134.92 374.93C141.547 374.93 146.92 372.423 146.92 369.33C146.92 366.237 141.547 363.73 134.92 363.73C128.293 363.73 122.92 366.237 122.92 369.33C122.92 372.423 128.293 374.93 134.92 374.93Z" fill="#263238"/>
<path d="M130.73 372.96C139.749 372.96 147.06 365.649 147.06 356.63C147.06 347.611 139.749 340.3 130.73 340.3C121.711 340.3 114.4 347.611 114.4 356.63C114.4 365.649 121.711 372.96 130.73 372.96Z" fill="#797979" stroke="#263238" stroke-width="1.5" stroke-miterlimit="10"/>
<path d="M130.08 349.22C130.047 350.08 129.761 350.912 129.259 351.611C128.757 352.31 128.06 352.846 127.256 353.153C126.451 353.459 125.574 353.522 124.734 353.334C123.894 353.146 123.128 352.715 122.531 352.095C121.934 351.475 121.532 350.692 121.376 349.846C121.22 348.999 121.316 348.125 121.653 347.333C121.99 346.541 122.552 345.865 123.27 345.39C123.987 344.914 124.829 344.661 125.69 344.66C126.278 344.67 126.858 344.797 127.397 345.032C127.936 345.267 128.423 345.606 128.831 346.029C129.239 346.453 129.559 346.953 129.774 347.5C129.988 348.048 130.092 348.632 130.08 349.22V349.22Z" fill="white"/>
</svg>
